<svg width="14" height="22" fill="none" xmlns="http://www.w3.org/2000/svg"><path d="M5.66 22h1.867v-2.687H5.659V22zm7.526-15.786C13.016 2.91 10.3.168 6.961 0h-.396C4.867 0 3.282.616 2.094 1.791.962 2.855.283 4.254.114 5.821L0 6.327h1.868l.056-.392a4.47 4.47 0 0 1 1.415-2.8 4.745 4.745 0 0 1 3.282-1.287h.227c2.377.112 4.3 2.016 4.47 4.423.114 1.847-.905 3.638-2.66 4.422-1.64.84-2.772 2.351-2.942 4.087v.503h.057v2.576H7.64v-2.911c.17-1.064.906-2.016 1.924-2.52 2.377-1.175 3.792-3.638 3.622-6.213z" fill="#fff"/></svg>