<svg width="20" height="20" fill="none" xmlns="http://www.w3.org/2000/svg"><path d="M18.68 2.83c-.048 0-.048-.098 0 0-.44-.586-.88-1.074-1.417-1.415 0 0-.049 0-.049-.05C15.993.44 14.624 0 13.11 0a6.876 6.876 0 0 0-6.89 6.878c0 1.17.293 2.293.88 3.366L.55 16.829c-.732.732-.732 1.951 0 2.634.294.342.783.537 1.271.537.49 0 .929-.195 1.32-.585l6.597-6.537c.978.585 2.2.878 3.372.878A6.876 6.876 0 0 0 20 6.878c0-1.512-.44-2.878-1.32-4.049zM2.26 18.536a.62.62 0 0 1-.88 0 .618.618 0 0 1 0-.878l6.403-6.39.048.048.391.39v.05c.147.145.245.243.391.39 0 0 0 .048.05.048L2.26 18.537zm10.85-6.05c-1.125 0-2.2-.292-3.128-.926-.294-.195-.636-.439-.88-.732a3.452 3.452 0 0 1-.39-.439c-.148-.146-.196-.244-.294-.439v-.049c-.635-.926-.929-2-.929-3.073a5.585 5.585 0 0 1 5.62-5.61c1.271 0 2.395.39 3.372 1.122l.05.05a5.59 5.59 0 0 1 1.074 1.072s0 .05.05.05a5.578 5.578 0 0 1 1.123 3.365c-.049 3.122-2.541 5.61-5.669 5.61z" fill="#336799"/><path d="M13.11 11.268c-.392 0-.636-.244-.636-.634s.244-.634.635-.634c1.76 0 3.128-1.366 3.128-3.122 0-.39.244-.634.635-.634s.636.244.636.634a4.376 4.376 0 0 1-4.399 4.39z" fill="#336799"/></svg>