<svg width="32" height="38" fill="none" xmlns="http://www.w3.org/2000/svg"><path d="M12.318 6.713a3.367 3.367 0 0 0 3.368-3.377C15.686 1.478 14.15 0 12.276 0 10.443 0 8.95 1.52 8.95 3.336a3.367 3.367 0 0 0 3.367 3.377zm4.177 16.214l1.322-.718s-.47-2.153-.47-2.406l-1.022-7.263 2.515 1.014 1.364 5.53-.768.423c-.255.127-.426.38-.511.633-.085.254-.043.55.085.803l.469.844-2.813 1.562a.963.963 0 0 0-.384 1.31l1.705 3.081c.512 0 3.197-.169 6.309-1.73l-.128-.212a.4.4 0 0 1 .128-.506l.34-.17a.41.41 0 0 1 .512.127l.128.211c2.983-1.773 4.518-3.969 4.774-4.39l-1.748-3.083a.982.982 0 0 0-1.321-.38l-2.813 1.562-.47-.844a1.11 1.11 0 0 0-1.448-.422l-.256.126-.767-6.629-6.65-2.702a2.786 2.786 0 0 0-1.747-.338c-.341.043-.64.17-.938.296l-5.285 3.167-5.882-1.774L0 11.865l6.862 3.209 3.709-2.238 1.108 7.727c0 .126.043.21.085.295l-3.026 6.376-2.089 10.049L9.08 38l3.026-9.626 2.344-4.856 1.407 5.573 3.24 1.225-3.112-5.531c-.426-.634-.17-1.478.511-1.858zm6.138-4.518c.213-.126.469-.042.597.17l.469.844-3.666 2.026-.469-.844a.445.445 0 0 1-.042-.338c.042-.127.085-.211.213-.253l.938-.507 1.534-.38-.043-.422.47-.296zm-.853 12.962l4.902 1.9.98-2.111-2.812-1.478-3.07 1.689z" fill="#fff"/><path d="M31.882 24.193l-1.62-2.87c-.468.675-2.003 2.701-4.816 4.348l.17.253a.4.4 0 0 1-.127.507l-.341.17a.41.41 0 0 1-.512-.128l-.17-.253c-2.899 1.478-5.499 1.731-6.308 1.773l1.62 2.914a.982.982 0 0 0 1.32.38l10.358-5.7c.512-.296.682-.93.426-1.394z" fill="#fff"/></svg>