<svg width="22" height="22" fill="none" xmlns="http://www.w3.org/2000/svg"><path d="M21.193 10.706c.419-.53.718-1.118.718-1.765 0-1.47-1.137-2.588-2.634-2.588h-5.089l.898-2.177c.18-.352.24-.764.24-1.117 0-1.235-.718-2.353-1.856-2.765C13.17.06 12.692 0 12.273 0c-1.258 0-2.395.706-2.814 1.824L7.483 6.353h-3.95C1.556 6.353 0 7.94 0 9.823v8.706C0 20.471 1.616 22 3.532 22h15.805c.718 0 1.317-.235 1.856-.765.539-.53.778-1.117.778-1.823s-.24-1.294-.718-1.765c.419-.53.718-1.118.718-1.765 0-.705-.24-1.294-.718-1.764.419-.53.718-1.118.718-1.765a2.656 2.656 0 0 0-.778-1.647zM7.124 20.353H5.328v-4.47c0-.53-.419-.883-.898-.883-.419 0-.898.353-.898.882v4.47c-.958 0-1.796-.764-1.796-1.764V9.882c0-.94.778-1.764 1.796-1.764h3.532v12.235h.06zm9.818-8.765h2.335c.42 0 .898.353.898.883 0 .235-.06.411-.24.588a.776.776 0 0 1-.598.235h-2.335c-.538 0-.898.353-.898.883 0 .529.36.882.898.882h2.335c.42 0 .898.353.898.882 0 .236-.06.412-.24.588a.776.776 0 0 1-.598.236h-2.335c-.539 0-.898.353-.898.882 0 .53.36.882.898.882h2.335c.419 0 .898.353.898.883 0 .235-.06.412-.24.588a.776.776 0 0 1-.598.235H8.86V7.705l.06-.058 2.155-5.059c.24-.588 1.078-.94 1.796-.706.54.177.779.706.779 1.236 0 .176 0 .353-.06.53l-1.437 3.41c-.06.236-.06.59.06.766.18.235.419.352.718.352h6.406c.42 0 .898.353.898.883 0 .235-.06.412-.24.588a.776.776 0 0 1-.598.235h-2.335c-.539 0-.898.353-.898.883-.12.412.36.823.778.823z" fill="#69DE56"/></svg>