<svg width="42" height="51" fill="none" xmlns="http://www.w3.org/2000/svg"><path d="M3.7 31c.1-.1.3-.2.5-.2h.4c.2 0 .4.1.5.2h.6c.1 0 .2 0 .4.1V31l.1-.4c0-.1.1-.3.2-.4 0-.2.2-.4.3-.5l.1-.1-.1-.4-.2-.2c-.1.1-.2.1-.3.1h-.1c-.1.1-.2.1-.3.2h-.1l-.1.1c-.1.2-.3.3-.6.3h-.1c0 .1 0 .2-.1.3l-.1.2-.1.1c0 .1-.1.1-.2.2l-.1.1c-.1.2-.4.3-.6.3h-.3c.1 0 .2 0 .3.1zm1.8-15.1v-.1h-.1v-.1h-.1v.1l-.1-.1h-.1l-.1.4v.6h.1l.1-.1v-.1h.1v-.1.1-.1.1h.1v-.1l-.1-.1.1-.1v-.1h.1v-.2z" fill="#fff"/><path d="M7.8 8.8L7 8.6c-.1 0-.2-.1-.1-.2L7 8h-.1l-.1-.1-.1-.3v-.4l-.3-.9h-.3L6 6.2c-.1 0-.1-.1-.1-.2l-.1-1h-.3s0 .1-.1.1l-.6.5.2.1V6h-.1l-.1.1-.2.1.1.1c.1.1.1.1.1.2v.1H5c.1 0 .2 0 .2.1l.2.3v.1s0 .1-.1.1l-.1.1v.2l.1.1c.1.1.1.2 0 .2l-.2.2v.1h.1c.1 0 .1 0 .1.1l.3.3.1.2.6.3h.3l.6.5c.1.1.1.2 0 .2l-.5.7-.2.7c0 .1-.1.1-.1.1h-.9l-.1.1h-.2l-.1-.1H5l-.1-.1v-.2l.2-.4v-.3l.1-.1-.1-.1v-.2L5 10h-.1l-.3-.1h-.3l-.6.4-.4.3-.1.1-.1.3v.5l-.2.3-.1.1.7.2c.1 0 .1 0 .1.1v.2l-.1.4c0 .1-.1.1-.2.1h-.1l.2.1.1.1c0 .1 0 .1-.1.1v.1l.2.3v.2l-.1.2.1.3v-.1c0-.1.1-.1.2-.1H4c.1 0 .2.1.2.2l.2-.3s0-.1.1-.1l.7-.3H6l.3.1c.1 0 .1.1.1.2L6.1 16c0 .1 0 .1-.1.1h-.1l.1.1c.1.1.1.1 0 .2l-.5.9-.4.8c.1.1.1.1 0 .2l-.1.5-.1 1.1.1.1h.6l.2.1.8-.1H7l.2-.3c0-.1.1-.1.2-.1.4.1 1 .2 1.2.2.2 0 .5-.2.6-.2h.1c.1 0 .5-.1.7 0 .2.1.3.4.5.7 0 0 0 .1.1.1.1.1.1.2.2.3.1.1.1.2.1.3 0 .2-.1.3-.2.5 0 0 0 .1-.1.1-.1.3-.3.5-.4.7-.1.1-.3.2-.4.3-.1 0-.2.1-.3.1-.1 0-.1 0-.2.1-.1 0-.2.1-.3.2v.1c.1.2.3.3.5.4.1.1.2.1.3.1h.4c.2 0 .3-.1.4-.2l.4-.4c.1-.1.1-.2.1-.4v-1.5s.1-.2.2-.3c.2-.1.6-.1.7-.1.2 0 .4.2.5.2.1.1.6.3.7.5.1.1.3.2.3.2l.1.1.1-.1-.1-.1-.2-.4-.4-1.6-.2-1.4v-.2l-.5-1.1-.5-1V15l.2-.5v-.1l.1-.1h-.6c-.1 0-.1 0-.2-.1l-.3-.1v-.2c0-.1.1-.1.1-.1h.1l-.4-.9-.1-.2-.2-.7-.2-.6-.5-1.4v-.5h-.3l-.6-.6v-.1l-.1-.1-.6.4h-.1c-.1 0-.2-.1-.2-.1l-.1-.2z" fill="#fff"/><path d="M9.7 9.2l.3.1c.1 0 .1.1.1.2v.5c.2.5.3 1 .5 1.5l.1.4.3.6.1.2.4.9v.4h.6c.1 0 .2 0 .2.1l.1.3v.2l-.2.2-.2.4v.5l.5 1 .5 1.1v.3l.2 1.4.5 1.1.2.4.1.1c.1 0 .1 0 .1.1l.2-.2.4-.7.5-.3h.1l.4-.1 1.3-.2.3-.2v-.2l.2-1.1-.2-.2v-.8l-.2-.7c0-.1 0-.2.1-.2h.1l-.1-.1-.1-.1-.1-.7-.2-.4v-1.3l.2-.6V13l-.2-.7-.1-.4.3-.7v-.8l-.4-1.8V8l-.1-.7v-.1l-.1-.1-.3-.2-.4-.2-.3-.2-.4-.4c0-.1 0-.1-.1-.1l-.1-.3-.4.1-.2.2-1.9 1.6-.3.2h-.1l-.1.1-.6.1h-.1l-.4.1-.5.1H10l-.3.1h-.1l-.3-.1v.1s0 .1-.1.1l-.1.1.1.1.5.6zM5 14.7l-.1.2v.2c.1-.1.1-.1.2-.1h.2l.1-.5h-.1l-.3.2zM33.9 16l.1.1h.1l.3.2v.1l.1-.1.1-.1h.1l-.1-.1h.1l.1.2v-.1l.2.4.3-.2-.1-.2.2-.1.1-.2.2-.1.1-.1v-.2h.1v-.1h.1l.1-.2h.1v.1l.1-.1v.1l.1.1h.2v.1h.2l.1.1v-.1l.1-.1h.1v-.1l-.1-.1v-.1h-.1l-.3-.1-.1-.1h-.1l-.1-.1h-.1l-.1.1v-.1l-.1.1h-.2l-.1-.1h-.1l-.1.1-.1-.1v-.2h-.2l-.1.1-.1.1-.2.1h-.3v.1l-.1.1h.1l-.3.1-.5.4.3.3-.1.1z" fill="#fff"/><path d="M14.9 5.3c.1 0 .2 0 .2.1l.1.4.4.3.4.2.4.3.3.3.1.1.1.1v.1l.1.8v.6l.4 1.8v.8l.1.4.1.4.2.8v.1l-.1.1-.2.6v1l.2.4.1.6.3.3c.1 0 .1.1.1.2s-.1.1-.1.1l-.3.1.1.6v.6l.2.2h.6c.1 0 .2.1.2.1l.1.6h.1l.4.2h.1l.1-.2v-.7c0-.1 0-.1.1-.1 0 0 .1-.1.1 0l.9.1v-.4c0-.1.1-.1.1-.2h.2l.1.1.4.3s.1 0 .1.1v-.7c.2-.4.4-.7.5-1.1.2-.4.4-.9.6-1.3 0 0 0-.1.1-.1v-.6l-.1-1c0-.1 0-.1.1-.2s.1 0 .2 0h.2l.1-.2v-.1l.6-.6-.1-.1v-.1l.1-.2-.1-.1V11l.1-.2c0-.1.1-.1.2-.1l.3.1c.1 0 .1.1.1.1l.1.2v.1l.1.1s.1.1 0 .2h.1l.1.1h.5l.3-.3V11l-.1-.6h-1.1c-.1 0-.2 0-.2-.1s0-.2.1-.2l.5-.4c0-.1 0-.1.1-.2l.7-.7v-.2c0-.1.1-.1.1-.1h.2l.2.1.2-.1v-.1c0-.1 0-.2.1-.2l.2-.1-.2-.2V8h-.4l-.2-.2-.5-.4-.4-.3-.4-.2-.2-.1-.1-.1-.2-.2-.1.2h-.7l-.3-.3H23v.3l-1-.1-.8-.2-1.2-.3-.6-.3-1.2-.5-.1-.2-.1.1-.7-.2-1.1.2.2-1.2.1-1.3h.4l-.1-.4h.2v-.5h-.4v-1l1.1.1V.5c0-.1-.1-.3-.1-.3l-.2.1-.3-.3-1 .6-.4-.6-.6.4.3.9-1.4.3.9 3.7zm20.2 9.3h.1l.2-.1.1-.1.1-.1h-.2v.1h-.2l-.1.1v.1zm-20.3 14l1-1.3.3-.3c-.4-.1-.8-.3-.9-.9-.1-.2-.1-.4 0-.6 0-.2.1-.4.3-.6l.1-.1.8-.6.3-.3c.2-.2.3-.5.4-.8v-.6H17c-.2 0-.4.1-.6.1l-.1.1-.1.1c-.1 0-.1.1-.1.1-.1.1-.2.2-.3.2-.1.1-.3.2-.4.2h-.6c-.1 0-.2 0-.3-.1l-.3-.3c-.1-.2-.3-.7-.3-.9l-.1-.3-.2-.1s-.2-.1-.3-.3c-.1-.1-.4-.3-.6-.4-.1 0-.2-.1-.3-.1-.1 0-.4 0-.5.1l-.1.1v1.1c0 .2 0 .3-.1.5 0 .2-.1.3-.2.5s-.3.4-.5.5c-.1.1-.3.2-.5.3-.2 0-.4.1-.5 0-.2 0-.3-.1-.5-.2s-.4-.3-.6-.6c-.1-.2 0-.4.1-.5.1-.1.3-.2.4-.3.1 0 .2-.1.3-.1.1 0 .1 0 .2-.1.1 0 .2-.1.3-.2.1-.2.2-.3.4-.6 0 0 0-.1.1-.1 0-.1.1-.2.1-.2s0-.1-.1-.2c0-.1-.1-.2-.2-.3 0 0 0-.1-.1-.1-.1-.2-.2-.4-.3-.5h-.4c-.4-.1-.7.1-1 .2-.3 0-1-.1-1.3-.2l-.2.3-.1.1-.3.1h-.2l-.8.1h-.1l-.2-.1h-.6l-.1-.1h-.1c-.1 0-.1-.1-.1-.2l-.1-.1v.2l.2.1v.2l.2.1v.1l-.2.2v.2l.1.2V23l.2 1.4v.2l.1.1.5 1.3c.1.3.1.4.1.4s0 .1.1.3l.4.6h-.1l-.3.2.1.1.1.4.1.1-.1.1-.1-.1-.1.1-.1.1-.3-.3-.1.1-.1.1v-1.3h-.4l-.1.1h.2v.1h-.2v.2h.1-.2v.1h.1-.1v-.1h-.1l-.1-.1v.1h-.1v.2h-.2L4 28v-.1h-.1v-.1l.1-.1.1-.1-.2.2h-.1v.2l-.3.2h-.1v.1l-.1.2v.4l.1.2v.1h-.1v-.5l-.1.1-.1.1-.1.1h-.6v.1l-.1.1.3.1v.1l.1.1-.1-.1-.1.1-.2-.1.1-.1.1-.1-.1.2v.1l.2.1h.2l.2.1.6.3h-.2l.1-.1.3.2V30l.2-.1.1-.1.1-.2H4l-.1-.1v-.4H4l.1.1-.1.1.3.1h-.1v-.1l.1-.1h.2v-.1l.1-.1.3.1-.1.1H5l.1-.1.2-.2.1-.1.2-.2.2.2v-.1h.1v-.1.2-.1l.2-.1v-.1l1.2.5.2.9h-.1l.2.1-.6.4v.2l-.2.1-.1.4.3.2.1.2.2.1.1.2-.4.2-.5.2-.5-.1-.2-.4h-.6v.7h-.5v-.7l-.1-.1h-.4l-.3.4c0 .1-.1.1-.1.2.1.1.1.2 0 .3-.1.1-.2.1-.3 0 0 .1 0 .1-.1.2l.1.1c0 .1 0 .1-.1.2 0 0-.1.1-.2.1 0 0 0 .1-.1.1H3c-.1 0-.1 0-.2.1h-.1c0 .1-.1.1-.1.2-.1.1-.1.2-.1.2v.7s.1.1.1.2l.1.3c.1 0 .2.1.3.2h.2c.1 0 .1-.1.2-.1.1-.2.4-.1.4-.1h.1c.1 0 .3.1.3.2.1.1.1.3 0 .3h.2c.1 0 .2.2.2.2 0 .1.1.2.1.2h.1c.1-.1.1-.2.2-.2l.5-.5c.1-.1.2-.1.2 0 .3.1.3.3.3.4v.1h.1c0-.1.1-.1.1-.1v-.1c.1-.1.2-.1.3-.1.2 0 .3 0 .4.1l.2-.5s0-.1.1-.1v-.2s0-.1.1-.1v-.7h-.1c-.1 0-.1-.1-.1-.2s-.1-.2 0-.4c0-.1.1-.1.1-.1-.1 0-.1-.1-.1-.1 0-.1-.1-.2 0-.3v-.2c0-.1.1-.1.2-.1L8 32h.6c.2.1.4.2.4.4.3.4.5.8.8 1.2.1.2.3.4.4.7l2.9-2.6.9-1.1-.6-.5-.1-.1c0-.1 0-.1.1-.1l1.4-1.3z" fill="#fff"/><path d="M23 21.4c0-.1.1-.1.2-.1h.5l.1-.1v-.4l.2-.5s0-.1.1-.1l.2-.1h.3l.2.2.8-.7-.1-.3-.2-.2h-1l-1.8-.6-.4-.2H22l-.2-.1-.1-.1-.1-.3-.3-.2v.4c0 .1 0 .1-.1.1s-.1.1-.1 0L20 18v.6l-.1.3c0 .1-.1.1-.2.1l-.1.1h-.2l-.4-.2h-.2l-.1-.1-.1-.6h-.3l-.2 1.1v.1H18v.2l-.1.1-.3.2h-.1l-1.4.2h-.3l-.5.3-.4.7-.1.1-.5.3h-.2c-.1 0-.1 0-.1-.1l-.1.1.1.2c.1.3.2.7.3.8.1.1.1.2.2.2h.6c.1 0 .2-.1.3-.2.1-.1.2-.1.2-.2.1 0 .1-.1.2-.2l.1-.1.2-.2c.2-.1.5-.2.7-.2h.1c.3.1.4.2.4.2 0 .1.1.2.1.3v.6c-.1.3-.2.6-.4.9-.1.2-.3.3-.4.5l-.9.9-.1.1c-.1.1-.1.2-.2.4v.4c.1.4.4.6.9.7.2 0 .6-.1.8-.3h.1c.1-.1.2 0 .2 0l.2.2h.1v-.1l.1-.2.1-.2.3-.4c0-.1.1-.1.2-.1h.2l.4.1s0-.1.1-.1h.1l.3.1s.1 0 .1.1h.1c.2-.1.4-.1.6-.2h.4s0-.1.1-.1h.2l.2.1V25l.1-.2.1-.1h.2l.2.1c.1-.1.2 0 .3 0l.1.1-.1-.2v-.2l.1-.1.1-.1.1-.1h.2l.1.1.2.5.3-.2h.1l.1-.1h.1s0-.1.1-.1v-.1c0-.1 0-.1.1-.2h.2l.4.4.2-.5v-.2l-.1-.3-.1-.1-.8-.6-.6-.2h-.1c-.1-.1-.1-.2 0-.3l.1-.1-.1-.4v-.1l.2-.3zM18.7 50l.1-.1v-.1s0-.1.1-.1l.1-.1v-.3l-.3-.2c-.1 0-.1-.1-.1-.2l.1-.2-.3-.3c-.1-.1-.1-.2 0-.3l-.1-.1-.1-.3-.5-.6v-.6l.2.1.2-1.1h-.2l.2-1 .1-1.1.3-.3.7-.5-.1-.3H19c0 .1-.1.1-.2.1h-.1c-.1 0-.1 0-.1-.1V42l-.3-.7-1-.4c-.1 0-.1-.1-.1-.2l.2-.6-.1-.1v-.1l.1-.8V39c-.1 0-.1-.1-.1-.2l.1-.4c-.1 0-.1 0-.1-.1l-.1-.1c-.1 0-.2 0-.2-.1l-.1-.3v-.2l.1-.1h.2v-.4c0-.1 0-.1.1-.2v-.1s-.1 0-.1-.1l-.1-.1s-.1-.1 0-.2l.1-.2c0-.1.1-.1.1-.1l.2-.1.2-.5v-.1l-.3-.1c-.1 0-.1-.1-.1-.2v-.3l.1-.1.1-.2v-.3h-.1c-.1 0-.1-.1-.1-.2l.1-.2c0-.1.1-.1.1-.1h.2l.5.4.8-.1v-1.5l.3-.5h-.1c-.1 0-.1-.1-.1-.1v-.2c0-.1 0-.1.1-.1l-.1-.1-.1-.1v-.7c0-.1.1-.1.1-.1h.1l.2-.2v-.1l.1-.2v-.2h-.2l-.3-.2c-.1 0-.1-.1-.1-.2v-.4l-.2-.2-.2-.3-.6-1.2-.4-.5-.1-.2c-.3.2-.6.3-.9.3l-.3.4-1 1.3-1.2 1.2.6.5.1.1v.1l-1 1.2-3 2.6 1.7 2.6v.3c.1 0 .1 0 .2.1l.8 1.2.6.4.5.2s.1 0 .1.1l.1.1.1-.1h.1l.8.3h.1c.1 0 .1.2.1.3l-.1.3.1.1.1.3c0 .1 0 .2-.1.2l-.3.2h-.1l.1.1v.2l-.1.2h.3l.1.1c.1 0 .1.1.1.2h.1c.1 0 .1.1.1.2l-.1.3.2.1c.1 0 .1.1.1.2v.2l-.1.1-.3.8-.1.1h-.5l-.6-.2-.9.9-.2.3-.1.1-1.2.6h-.2l-.1-.1-.6.3v.3l.1.1s.1.1.1.2v.3l.1-.2.1-.1.3-.1h.4c.1 0 .1 0 .1.1l.1.1.2-.1c.1 0 .2 0 .2.1l.1.1.6-.1h.1l.2.2.1.1v.2l.4.1h.1l.3.2.2.2.2.3v.2l-.1.4-.1.3s0 .1-.1.1l.2.1h.2v-.1c0-.1.1-.1.2-.1h.1v-.1l-.5-.2c-.1 0-.1-.1-.1-.1V48l.1-.2c0-.1.1-.1.2-.1l.2.1.2-.1.4-.5c.1-.1.2-.1.2 0l.2.1.4-.1c.1 0 .1 0 .2.1 0 0 .1.1.1.2l-.3 1.7v.2l.9.6.1-.1s.1-.1.2 0c.2 0 .2.1.3.1z" fill="#fff"/><path d="M30.2 35.9l-.2-.8-.1-.5v-.3l.1-.6v-.2h-.1c-.2.1-2 1-2.1 1h-.1l-.9-.1h-.3c-.1 0-.5.2-.8.1-.3 0-1.1-.4-1.2-.4l-1.1-.8-.3-.3-.1-.1v-.1c0-.2.1-1 .1-1.3 0-.1.1-.2.2-.3h.1c.1-.1.1-.1.2-.1.5-.2.9-.5 1.4-.7.4-.2.5-.5.4-.9v-.1c-.1-.1-.2-.3-.3-.4-.3-.2-.7-.4-1-.4h-.2l-.5-.1h-.1l-.2-.2-.2-.3c-.1 0-.1-.1-.1-.2v-.5l-.3-1.4v-.6h-.2c-.1 0-.1 0-.2-.1V25h-.4v.5c0 .1-.1.2-.2.2h-.3s0 .1-.1.1h-.4l-.7.1c-.1 0-.2 0-.2.1-.1 0-.2 0-.2-.1 0 .1 0 .1-.1.1h-.2l-.4-.2-.1.1h-.1l-.2.3-.1.2-.1.1v.1l-.2.2.2.2v.1l.6 1.2.2.3.1.1.1.1s.1.1 0 .1v.4h.1l.2-.1h.1l.1.1.1.4v.1l-.2.2v.2l-.3.3s-.1 0-.1.1l.1.1v.3l.2.2c.1 0 .1.1.1.2.1 0 .1 0 .1.1v.2l-.5.7V34c0 .1 0 .1-.1.1 0 0-.1.1-.1 0l-.9-.1h-.1l-.1.2v.5l-.1.2-.2.1.2.1h.1c.1 0 .1 0 .2.1v.2l-.1.3-.2.6-.1.1h-.1s.1.1.1.2l.1.1v.2l-.1.1v.2c0 .1 0 .1-.1.1v.4c0 .1-.1.2-.1.2s.1 0 .1.1l.1.1h.1c.1 0 .1 0 .1.1v.2l-.1.5c.1 0 .1.1.1.1v.2l-.1.1-.1.1-.1.6.1.2v.1l-.2.5.9.4.1.1.3.7v-.2s0-.1.1-.1l.2-.2h.1l2.5.3h1.3l.4-.1.4-.2h.3l.1-.1s0-.1.1-.1l1.9-1.3.2-.1h.3v-.2s0-.1.1-.1l1.3-1 1.5-1.5.1-.1h.2v-.3l.3-.4-.1-.4c0 .1 0 .1 0 0zM19.5 50.4l-.1-.1v-.1h.2v-.8l-.1-.1v.1l.1.1v.2l-.2.1v.2l-.3.3h-.2v.1s0 .1-.1.1l.1.1h.3l.1-.1v-.1l.1.1v.3l.3-.1-.2-.3zm-.4-2.1l.1-.1-.1-.1-.1.2-.1-.2-.1-.2-.2.1.4.4s.1.1 0 .2v.3l.3.2.1.1h.1l-.1-.8-.3-.1zm21.8-21.1h.4l-.3-.4.4-.2-.6-.2-.1-.3h-.6v-.3l-.2-.3-.2-.4-.3-.1h-.3.1l-.2-.3-.2.2h-.1v-.3l-.4-.1H38l-.1.3.2.1.1-.1.1.1v.1l-.4.1.1-.1-.4.2-.3-.1-.3.2-.5.1v-.1h-.2v.3l-.3.2-.2-.1v-.3h-.5l-.6-.3-.1-.1.1-.4.1-.4.2-.4.4-.2.5-.5.6.1-.2-.7.2-.1-.1-.2-.1.2-1.3.5-1 .1h-.3l-.1-.4v-2.8l.2-.3-.2-.1v-.5l-.1-2.2-.1-.8.2-.3-.2-.1-.1-.5-.1-.3-.2-.6-.2-.2v-.2h-.2l-5.5-5-.1.1v.1c0 .1 0 .2-.1.2l-.5.2h-.2l-.6.7c0 .1 0 .1-.1.2l-.2.1h.7c.1 0 .2.1.2.2l.1.8v.5l-.1.1-.3.4s-.1.1-.2.1l-.7-.1h-.1V12l-.1.1c-.1 0-.2 0-.3-.1l-.1-.1-.7.7-.1.3c0 .1-.1.1-.1.1l-.3.1.1.7v.6c0 .1-.1.2-.1.2-.2.4-.4.9-.6 1.3-.2.4-.3.7-.5 1.1v1l.4.1 1.8.6h.6l.5.1s.1 0 .1.1l.3.3v.1l.6 1.4v.3c-.1.2-.2.6-.2.8 0 .2 0 .3.1.4l.2.2.8.4.1.1.6.6.8.2h.1l.3.3.6.5 3.5 2.1h.1l1.1.7.3.2.1.1c0 .1 0 .1-.1.1l.6.5.5-.6.2-.2.3-.4h.6l.5-.1.2.7h.5l.2.3v.4l.5-.3-.1.2-.1.2-.1.2-.1.2-.3.1-.2.4-.2.3v.3l.4.1.1.5 1.9.1.2.1.8.1-.2-.2-.1-.1v-.3l.2-.2-.1-.3.1-.5-.3-.3-.9-.5s.5-.2.8-.2h.4c.1 0 .1 0 .2-.1 0-.1-.1-.1-.1-.2s-.1-.1-.1-.1l-.1-.2h-.4l-.6-.5.5.1h.4z" fill="#fff"/><path d="M34.5 28.8c0-.1 0-.1.1-.1l.1-.1-.4-.4c-.1-.1-.1-.2 0-.3l.1-.1-.1-.1-1-.6-3.6-2.1-.6-.5-.3-.2-.8-.2s-.1 0-.1-.1l-.6-.7-.1-.1-.8-.4c-.1 0-.3-.2-.4-.3-.1-.1-.1-.3-.1-.6 0-.2.2-.7.2-.9v-.1l-.3-.7-.8.7c-.1.1-.1.1-.2 0l-.2-.2-.4.3v.3l-.1.2-.1.1-.2.2h-.5l.1.4v.1l.4.1.8.6.1.1.2.3v.5l-.4.8-.1.1h-.3l-.2-.2s-.1 0-.1.1v.1c0 .1 0 .1-.1.1h-.1c0 .1-.1.1-.1.1h-.2l-.4.2h-.3v.6l.3 1.4v.4h.3l.2.2.6.2h.2c.4.1.8.2 1.1.5.2.1.4.3.5.6v.2c.1.5-.1 1-.6 1.3-.4.2-.9.5-1.4.7l-.2.1-.1.2-.1 1.2.2.2 1.1.8c.2.1.8.3 1.1.3.2 0 .6-.1.7-.1h.4l.8.1 1.8-.9c.1 0 .2-.1.3-.1h.3c.1 0 .2.1.2.1 0 .1.1.1.1.3v.2l-.1.6v.3l.1.5.2.7.1.1 1.3-1.5h.1l.1-.1h.1V34l.8-.8.3-.6s0-.1.1-.1v-.7l-.4-1.4-.3-1.1c0-.1 0-.2.1-.2h.2l1.4 1.1.3-1.1-.2-.2c-.1 0-.1-.1-.1-.1zM3.2 2l-.4.3-.5.3.4.1.3.4.2.3v.2l.3.1.1-.1-.1-.2L4 3l1.2 1-.4.2-.2.4h-.2l.3.4v.2l.4-.3v-.1c0-.1 0-.1.1-.1l.3-.2h.2c.1 0 .1.1.1.2H6l.1.1.4-.3-.2-.3v-.3l.4-1 .5.2h.1l.1-.1h-.1L7 2.3l-.1-.1.3-.8h.6l.1-.3V.9L8 .8 7.8.7V.5h-.2L7.5.4l-.3.1V.4l-.1.1v.1L7 .7l-.8.3-.1-.1.1-.2L6 .6 5.9.5h-.3v.2h-.2L5.1.4l.1-.2H4.1L4 .3v.1l-.2.4-.2-.3-.1.1-.2-.2V.2h-.2V.1l-.4.3v.3l.5.8.6.5-.2.3-.4-.3zM1.1 17.4l.1.1v.1h.2l-.1.1-.1.1-.1.1H1l-.2.1H.5h.1v.1H.4v.3h.1v.4h.1V18h.1l.1.1.3.1 1 .8.2.1-.1.2h-.1v.1l-.2.1-.3.1h-.2l-.1.4v.1h-.1l.1.1.1.1h.5v.1l.1.2h.8v-.3l.3.1h.1l-.2-.2h.1l-.1.1h.4v-.2l.1-.2v-.1l.1-.1v-.3l.1-.1.3-.1v-.1l.2-.1.1-.1-.1-.1.1-.1.2-.1.1-.1v-.1l-.2-.1-.1-.1h-.1l.1-.2h-.1l-.1-.1H4v-.1h-.2l-.1-.1-.2-.1.1-.1h.1l.1-.2.2-.1.1-.1V17s-.1 0-.1-.1l-.5-.3h-.1l-.3.2-.1-.1-.2.2-.1.1v.1h-.4L2 17h-.2l-.1.1h-.1v.1h-.1l-.4.2zm-.9-.2v.3-.1l.3-.1.2-.1.1-.4v-.1H.4l-.2.1H0v.1l.2.3z" fill="#fff"/></svg>