<svg width="27" height="22" fill="none" xmlns="http://www.w3.org/2000/svg"><path d="M18.756 6.911c-1.465 0-2.872.23-4.044.576V4.03c0-2.302-3.165-4.03-7.385-4.03S0 1.728 0 4.031v13.822C0 20.157 3.165 22 7.385 22c2.345 0 4.396-.518 5.686-1.44 1.29.864 3.34 1.44 5.685 1.44 4.22 0 7.386-1.785 7.386-4.147v-6.91c.058-2.304-3.107-4.032-7.386-4.032zm-16.998 3.34c1.29.864 3.341 1.383 5.627 1.383 1.466 0 2.872-.23 4.045-.576v1.555c-.938.403-2.345.748-4.045.748-3.282 0-5.627-1.324-5.627-2.419v-.69zm0 3.456c1.29.864 3.341 1.382 5.627 1.382 1.466 0 2.872-.23 4.045-.576v1.555c-.938.403-2.345.749-4.045.749-3.282 0-5.627-1.325-5.627-2.42v-.69zm5.627 6.508c-3.282 0-5.627-1.267-5.627-2.362v-.748c1.29.864 3.341 1.382 5.627 1.382 1.466 0 2.872-.23 4.045-.576 0 .518.175.921.41 1.382-1.055.518-2.638.922-4.455.922zm5.686-12.728c0 1.094-2.462 2.419-5.627 2.419-3.165 0-5.627-1.267-5.627-2.42v-.748c1.29.864 3.341 1.382 5.627 1.382 2.286 0 4.279-.518 5.627-1.382v.749zM7.385 6.45c-3.282 0-5.627-1.267-5.627-2.419 0-1.151 2.462-2.303 5.627-2.303 3.165 0 5.627 1.21 5.627 2.303.059 1.152-2.403 2.42-5.627 2.42zm17.057 11.403c0 1.095-2.462 2.42-5.627 2.42-1.817 0-3.4-.404-4.396-.922-.762-.403-1.231-.922-1.231-1.382v-.75c.41.346 1.055.577 1.641.75 1.114.403 2.462.575 4.044.575 2.286 0 4.28-.518 5.627-1.382v.691h-.058zm0-3.455c0 1.094-2.462 2.419-5.627 2.419a11.47 11.47 0 0 1-4.044-.749c-1.056-.403-1.642-1.037-1.642-1.613v-.748c.41.23.938.518 1.583.748h.059c1.113.404 2.52.576 4.044.576 1.465 0 2.872-.23 4.103-.69.586-.173 1.114-.404 1.582-.75v.807h-.058zm0-3.456c0 1.095-2.462 2.42-5.627 2.42a11.47 11.47 0 0 1-4.044-.75c-1.056-.403-1.642-1.036-1.642-1.612 0-.518.587-1.21 1.642-1.613.937-.403 2.344-.748 4.044-.748 3.165 0 5.627 1.21 5.627 2.303z" fill="#69DE56"/></svg>