<svg width="14" height="22" fill="none" xmlns="http://www.w3.org/2000/svg"><path d="M6.6 22a.783.783 0 0 1-.595-.227l-5.767-5.5a.765.765 0 0 1-.179-.85l3.984-9.866-2.319-4.423a.67.67 0 0 1 .06-.737C1.962.17 2.2 0 2.497 0h8.206c.297 0 .535.113.713.397a.67.67 0 0 1 .06.737l-2.32 4.423 3.984 9.922a.765.765 0 0 1-.178.85l-5.767 5.5A1.188 1.188 0 0 1 6.6 22zm-4.816-6.464L6.6 20.13l4.816-4.593-3.924-9.752c-.06-.227-.06-.454.06-.624l1.902-3.572H3.805L5.708 5.16c.119.17.119.453.06.624l-3.984 9.752z" fill="#fff"/><path d="M8.265 6.294h-3.33c-.476 0-.832-.34-.832-.794s.356-.794.832-.794h3.27c.476 0 .833.34.833.794a.78.78 0 0 1-.773.794z" fill="#fff"/></svg>