<svg width="215" height="75" fill="none" xmlns="http://www.w3.org/2000/svg"><path d="M83.255 30.311v-12.57h4.226v12.192c0 1.387.67 2.606 2.887 2.606s2.886-1.177 2.886-2.606V17.74h4.226v12.57c0 3.952-3.054 6.348-7.112 6.348s-7.112-2.396-7.112-6.348zm23.471-.126h-2.008v6.096h-4.226V17.74h7.364c3.514 0 6.317 2.817 6.317 6.348 0 2.27-1.381 4.33-3.389 5.381l3.933 6.81h-4.519l-3.472-6.095zm-2.008-3.7h3.179c1.172 0 2.092-1.05 2.092-2.396 0-1.345-.962-2.396-2.092-2.396h-3.179v4.792z" fill="#3A64A2"/><path d="M127.519 33.38h-6.861l-.921 2.9h-4.602l6.276-18.539h5.355l6.275 18.54h-4.602l-.92-2.901zm-1.255-3.952l-2.176-6.81-2.175 6.81h4.351zm24.725-2.396c0 5.255-3.89 9.249-8.953 9.249h-7.363V17.74h7.363c5.063 0 8.953 4.036 8.953 9.29zm-4.058 0c0-3.195-2.008-5.171-4.895-5.171h-3.179v10.384h3.179c2.887-.042 4.895-2.06 4.895-5.213zm12.635 3.153h-2.008v6.096h-4.226V17.74h7.364c3.514 0 6.317 2.817 6.317 6.348 0 2.27-1.381 4.33-3.389 5.381l3.933 6.81h-4.518l-3.473-6.095zm-2.008-3.7h3.18c1.171 0 2.091-1.05 2.091-2.396 0-1.345-.962-2.396-2.091-2.396h-3.18v4.792zm23.596 5.718v4.078h-11.589V17.74h11.463v4.078h-7.237v3.069h6.568v4.036h-6.568v3.279h7.363zm1.464-.126l3.64-2.102c.669 1.555 1.799 2.564 3.891 2.564 2.008 0 2.51-.799 2.51-1.513 0-1.135-1.046-1.598-3.807-2.354-2.761-.757-5.439-2.102-5.439-5.634 0-3.573 3.012-5.633 6.192-5.633 3.012 0 5.397 1.471 6.736 4.204l-3.556 2.102c-.628-1.303-1.507-2.144-3.18-2.144-1.297 0-1.966.672-1.966 1.387 0 .84.46 1.43 3.305 2.312 2.803.841 5.941 1.808 5.941 5.76 0 3.573-2.845 5.675-6.862 5.675-3.932-.042-6.401-1.892-7.405-4.624zm26.859 1.303h-6.861l-.92 2.9h-4.602l6.275-18.539h5.355L215 36.281h-4.602l-.921-2.901zm-1.255-3.952l-2.175-6.81-2.176 6.81h4.351z" fill="#A80532"/><path d="M74.595 0H0v74.958h74.595V0z" fill="#fff"/><path d="M39.954 19.717h8.284v-1.261h-8.284v1.26zm.293 18.161h8.284v-1.26h-8.284v1.26zm-1.422 20.558h8.283v-1.261h-8.283v1.261zm1.13-41.115h8.283v-1.262h-8.284v1.262zm0-2.397h8.283v-1.26h-8.284v1.26zm.292 27.62h8.284v-1.26h-8.284v1.26zm26.525 11.562a.841.841 0 0 0-.837-.84.949.949 0 0 0-.962.966v2.144h1.799v-2.27zM40.247 47.21h8.284v-1.26h-8.284v1.26zm0-2.354h8.284v-1.261h-8.284v1.261zm7.07-16.27h-8.283v1.262h8.284v-1.262zm-8.492 25.225h8.283V52.55h-8.283v1.262zm0-2.355h8.283v-1.26h-8.283v1.26zm8.493-18.203h-8.284v1.261h8.284v-1.261zm-8.493 22.87h8.283v-1.261h-8.283v1.26zm8.493-29.849h-8.284v1.261h8.284v-1.26zm-7.364-4.162h8.284v-1.261h-8.284v1.261zm7.364 1.808h-8.284v1.261h8.284V23.92zM66.27 62.766a.93.93 0 0 0-.92.925v1.682h1.715v-1.808a.771.771 0 0 0-.795-.799zM47.318 30.9h-8.284v1.26h8.284V30.9zm-7.07 9.333h8.283V38.97h-8.284v1.262zm14.6 13.032a.949.949 0 0 0-.962.967v2.144h1.799v-2.27a.841.841 0 0 0-.837-.84zm11.422 6.012a.93.93 0 0 0-.92.925v1.681h1.715v-1.807a.771.771 0 0 0-.795-.8zm-2.176 4.246c0-.42-.376-.799-.795-.799a.93.93 0 0 0-.92.925v1.682h1.715v-1.808zM61.207 35.86c0-.42-.376-.798-.794-.798a.93.93 0 0 0-.92.925v2.858h1.714V35.86zm-3.932 10.006a3.141 3.141 0 0 0 3.138 3.153 3.141 3.141 0 0 0 3.137-3.153 3.141 3.141 0 0 0-3.137-3.153 3.141 3.141 0 0 0-3.138 3.153zM72.21 71.553h1.632V69.03H72.21v2.523zm0 3.153h1.632v-2.523H72.21v2.523zm-17.864-15.43a.93.93 0 0 0-.92.926v1.681h1.715v-1.807a.796.796 0 0 0-.795-.8zm15.647 15.682h.711v-6.937h3.891v-.63h-4.602v7.567zM54.346 62.766a.93.93 0 0 0-.92.925v1.682h1.715v-1.808a.796.796 0 0 0-.795-.799zm2.05 2.607h1.715v-1.808c0-.42-.376-.799-.794-.799a.93.93 0 0 0-.92.925v1.682zm0-5.171v1.681h1.715v-1.807c0-.42-.376-.8-.794-.8a.904.904 0 0 0-.92.926zm6.694-6.096a.841.841 0 0 0-.837-.84.95.95 0 0 0-.962.966v2.144h1.8v-2.27zm-2.51 12.402c-2.343 0-4.267 1.934-4.267 4.288V75h8.241v-4.456c0-2.27-1.799-4.036-3.974-4.036zm.502-6.432c0-.42-.377-.8-.795-.8a.93.93 0 0 0-.92.926v1.681h1.715v-1.807zm3.012 0c0-.42-.376-.8-.795-.8a.93.93 0 0 0-.92.926v1.681h1.715v-1.807zm-4.727-5.97a.841.841 0 0 0-.837-.84.95.95 0 0 0-.962.966v2.144h1.799v-2.27zm1.715 9.417c0-.42-.377-.799-.795-.799a.93.93 0 0 0-.92.925v1.682h1.715v-1.808zm-41.335 5.34h7.196v-1.094h-7.196v1.093zM8.158 32.496h3.305v-4.792H8.158v4.792zm4.393 16.522h3.305v-7.525h-3.305v7.525zm-4.393 0h3.305v-7.525H8.158v7.525zm0-8.198h3.305v-7.525H8.158v7.525zm4.393 16.396h3.305v-7.525h-3.305v7.525zm14.392-8.997h-7.196v1.093h7.196V48.22zm0 2.018h-7.196v1.093h7.196v-1.093zm-14.392-17.74h3.305v-4.793h-3.305v4.792zm7.196 34.346h7.196V65.75h-7.196v1.093zM0 0v64.532h4.56v-1.387h-.544v-.589h.544a1.177 1.177 0 0 1-.334-.84c0-.673.543-1.22 1.213-1.22s1.213.547 1.213 1.22c0 .336-.125.63-.335.84h.67v.589h-.544v1.387h8.702v5.423h-1.004v-1.009h-1.966v1.01h-.795v-1.01H9.413v2.355h1.59v.84h-1.59v2.355h1.59V75h.92v-4.372h33.512v4.33h.837v-5.003H42.59V62.22h.628v-2.943h1.506v2.943h.795v-2.943h1.506v2.943h.795v-2.943h1.506v2.943h.795v-2.943h1.506v2.943h.962v-3.994h-.711v-1.093h.544v-4.75h-.293v-1.094h.125l.92-4.876 1.172 4.876h1.172V43.89h.46v-3.153h-.335v-1.05h.67v-6.643h1.506l2.426-12.36-1.171.883.544-1.64-1.381-1.009h1.715l.544-1.64.544 1.64h1.715l-1.38 1.01.544 1.639-1.088-.8 2.092 12.277h1.297v6.642h.836v1.051h-.209v3.153h.335v7.4h1.13l.92-4.877 1.171 4.876h.084v1.093h-.376v4.75h.753v1.094h-.712v3.994h1.214v-2.943h1.506v2.943h.795v-2.943h1.506v2.943h.795v-2.943h.836V0H0zm17.488 69.955h-1.59v-6.138h-.042v-5.885h-3.305v5.885h-1.088v-5.885H8.158v5.885H7.74v-1.976h-.335v-.084c0-.714-.376-1.345-.962-1.681V27.032h1.673v-2.523h7.866v2.523h1.548v42.923h-.042zm11.798-28.671H28.03V52.55h1.255v12.318H28.03v5.087h-1.088v-.168h-7.196v.168h-.962v-5.381h1.255V52.929h-1.255V41.115h1.255V30.27h-1.255v-9.501h1.255V19.38h7.112v1.387h.879v9.375h1.255v11.14zm6.736-10.3h-.293v2.312h-.92v3.952h-.503v8.912h1.255v2.355H34.6v6.138h.544v15.302h-3.765V54.653h.502v-6.18h-.962v-2.355h1.422V42.04h.084v-4.792h-.67v-3.952h-.962v-2.312H30.5v-3.952h1.548v-2.817h.67v-4.078h-.712v-.967h.795v-6.264h-.711v-1.009h1.004V7.19h.502v4.708h.962v1.01h-.795v6.263h.795v.967h-.795v4.078h.544v2.817h1.757v3.952h-.041zm13.638-8.072h-1.464v12.486h1.464v13.621h-1.464v9.501h-5.69v.967h-3.681v1.261h3.681v.673h-.627v2.312h-1.674v1.261h1.674v1.051h-1.674v1.262h1.674v1.05h-1.674v1.262h1.674v.252h-2.887v-7.189h-1.464V48.515h1.464V35.65h-1.464V22.786h1.464V11.98h1.004v-1.555h8.158v1.556h1.465v10.93h.041zM17.111 74.958h5.648v-.715h-5.648v.715zm18.743 0H41v-.715h-5.146v.715zm0-1.177H41v-1.85h-5.146v1.85zm-18.743 0h5.648v-1.85h-5.648v1.85zm9.832-27.579h-7.196v1.093h7.196v-1.093zM8.158 57.217h3.305v-7.525H8.158v7.525zm18.325 17.741h5.146v-.715h-5.146v.715zm0-1.177h5.146v-1.85h-5.146v1.85zM12.55 40.82h3.305v-7.525H12.55v7.525zm15.44-7.65h-7.196v1.093h7.196V33.17zm0 2.018h-7.196v1.093h7.196v-1.093zm0 2.018h-7.196v1.093h7.196v-1.093zm-7.03 17.867h7.196V53.98H20.96v1.093zm0 2.018h7.196v-1.093H20.96v1.093zm0 4.036h7.196v-1.093H20.96v1.093zm5.983-16.943h-7.196v1.094h7.196v-1.094zm-5.983 18.96h7.196v-1.092H20.96v1.093zm0-4.035h7.196v-1.093H20.96v1.093zm-.167-18.792h7.196v-1.093h-7.196v1.093zm6.401-11.856h-7.196v1.093h7.196v-1.093zm0-2.102h-7.196v1.093h7.196V26.36zm-.251 15.807h-7.196v1.094h7.196v-1.093zm1.046-11.014h-7.196v1.093h7.196v-1.093zm-.795-6.853h-7.196v1.093h7.196V24.3zm0-2.102h-7.196v1.093h7.196v-1.093z" fill="url(#paint0_linear)"/><path d="M85.473 53.56c-.963 0-1.674-.295-2.218-.883-.543-.589-.794-1.43-.794-2.48 0-1.094.25-1.935.794-2.565.544-.589 1.297-.883 2.26-.883.334 0 .627.042.962.084.334.042.544.168.753.252l-.293.841a3.53 3.53 0 0 0-.711-.21c-.251-.042-.502-.084-.67-.084-1.338 0-2.008.84-2.008 2.564 0 .799.168 1.43.502 1.85.335.42.795.63 1.465.63.543 0 1.087-.126 1.673-.336v.883a4.304 4.304 0 0 1-1.715.336zm7.237-.127l-.209-.925h-.041c-.335.42-.67.673-.963.841-.334.126-.71.21-1.213.21-.67 0-1.171-.168-1.548-.504-.376-.336-.544-.799-.544-1.43 0-1.345 1.046-2.017 3.18-2.102l1.13-.042v-.42c0-.504-.126-.883-.335-1.135-.21-.252-.586-.378-1.046-.378-.544 0-1.172.168-1.841.504l-.293-.757c.335-.168.67-.294 1.046-.42a3.594 3.594 0 0 1 1.171-.168c.795 0 1.381.168 1.758.504.376.337.585.925.585 1.682v4.498h-.836v.042zm-2.259-.714c.628 0 1.088-.169 1.465-.505.334-.336.544-.799.544-1.43v-.588l-1.004.042c-.795.042-1.34.168-1.716.379-.376.21-.544.546-.544 1.009 0 .378.126.63.335.84.21.21.544.253.92.253zm8.452-.253l.167-.546.25-.715 1.758-4.33h1.255v6.558h-.878V48.01l-.126.336-.335.925-1.673 4.162h-.837l-1.673-4.204c-.21-.546-.377-.967-.419-1.261v5.423h-.878v-6.558h1.213l1.715 4.162c.168.462.293.967.46 1.471zm9.622.967l-.209-.925h-.042a3.34 3.34 0 0 1-.962.841 3.32 3.32 0 0 1-1.214.21c-.669 0-1.171-.168-1.548-.504-.376-.336-.543-.799-.543-1.43 0-1.345 1.046-2.017 3.179-2.102l1.13-.042v-.42c0-.504-.126-.883-.335-1.135-.209-.252-.586-.378-1.046-.378-.544 0-1.171.168-1.841.504l-.293-.757c.335-.168.67-.294 1.046-.42a3.597 3.597 0 0 1 1.172-.168c.795 0 1.38.168 1.757.504.377.337.586.925.586 1.682v4.498h-.837v.042zm-2.259-.714c.627 0 1.088-.169 1.464-.505.335-.336.544-.799.544-1.43v-.588l-1.004.042c-.795.042-1.339.168-1.715.379-.377.21-.544.546-.544 1.009 0 .378.125.63.334.84.21.21.544.253.921.253zm5.355.714h-1.172l1.883-2.774c-.502-.127-.878-.337-1.171-.673a1.948 1.948 0 0 1-.419-1.22c0-.588.21-1.092.586-1.429.418-.336.962-.504 1.674-.504h2.928v6.6h-1.004v-2.648h-1.673l-1.632 2.648zm.125-4.666c0 .756.544 1.135 1.632 1.135h1.59v-2.228h-1.799c-.921.042-1.423.378-1.423 1.093zm10.543 4.666h-1.004v-6.6h5.523v6.6h-1.004v-5.717h-3.515v5.717zm12.259-3.321c0 1.093-.252 1.892-.795 2.523-.544.63-1.297.924-2.218.924-.585 0-1.088-.126-1.548-.42a2.848 2.848 0 0 1-1.046-1.177c-.251-.505-.376-1.135-.376-1.808 0-1.093.251-1.892.795-2.522.544-.589 1.297-.883 2.217-.883.92 0 1.632.294 2.176.925.543.588.795 1.387.795 2.438zm-4.979 0c0 .84.167 1.471.502 1.934.335.462.837.673 1.464.673.628 0 1.13-.21 1.465-.673.334-.462.502-1.093.502-1.934 0-.84-.168-1.471-.502-1.892-.335-.42-.837-.672-1.507-.672-.669 0-1.129.21-1.464.63-.293.463-.46 1.093-.46 1.934zm11.631 3.321h-1.004v-5.717h-1.967c-.125 1.43-.251 2.564-.46 3.405-.209.84-.46 1.471-.753 1.85a1.464 1.464 0 0 1-1.171.588 1.56 1.56 0 0 1-.503-.084v-.757c.084.043.168.043.293.043.461 0 .837-.505 1.088-1.472.251-.967.46-2.438.628-4.456h3.849v6.6zm3.096-6.6v2.775h3.681v-2.775h1.004v6.6h-1.004v-2.985h-3.681v2.985h-1.005v-6.6h1.005zm10.793 6.6l-.209-.925h-.042c-.334.42-.669.673-.962.841-.335.126-.711.21-1.213.21-.67 0-1.172-.168-1.548-.504-.377-.336-.544-.799-.544-1.43 0-1.345 1.046-2.017 3.18-2.102l1.129-.042v-.42c0-.504-.125-.883-.334-1.135-.21-.252-.586-.378-1.046-.378-.544 0-1.172.168-1.841.504l-.293-.757a7.763 7.763 0 0 1 1.046-.42 3.59 3.59 0 0 1 1.171-.168c.795 0 1.381.168 1.757.504.377.337.586.925.586 1.682v4.498h-.837v.042zm-2.259-.714c.628 0 1.088-.169 1.465-.505.334-.336.543-.799.543-1.43v-.588l-1.004.042c-.795.042-1.338.168-1.715.379-.377.21-.544.546-.544 1.009 0 .378.126.63.335.84.209.21.544.253.92.253zm5.355.714h-1.171l1.883-2.774c-.502-.127-.879-.337-1.172-.673a1.948 1.948 0 0 1-.418-1.22c0-.588.209-1.092.585-1.429.419-.336.963-.504 1.674-.504h2.929v6.6h-1.005v-2.648h-1.673l-1.632 2.648zm.126-4.666c0 .756.544 1.135 1.631 1.135h1.59v-2.228h-1.799c-.92.042-1.422.378-1.422 1.093zm9.204.714c0-1.429.209-2.564.628-3.363.418-.799 1.087-1.303 2.008-1.513 1.129-.252 2.133-.463 3.012-.589l.167.883c-1.38.252-2.384.42-2.97.547-.586.126-1.004.462-1.297.925-.293.504-.46 1.177-.46 2.017h.083c.251-.336.586-.588.963-.798.376-.21.795-.295 1.213-.295.795 0 1.422.253 1.883.8.46.504.669 1.26.669 2.185 0 1.051-.251 1.85-.795 2.397-.502.588-1.255.882-2.175.882-.921 0-1.632-.336-2.176-1.05-.502-.757-.753-1.724-.753-3.028zm3.054 3.238c1.213 0 1.841-.8 1.841-2.355 0-1.471-.544-2.228-1.674-2.228-.292 0-.585.084-.878.21a2.37 2.37 0 0 0-.753.505c-.251.21-.419.42-.544.63 0 1.051.167 1.85.502 2.397.293.546.795.84 1.506.84zm8.619.714l-.21-.925h-.041c-.335.42-.67.673-.963.841a3.31 3.31 0 0 1-1.213.21c-.669 0-1.171-.168-1.548-.504-.376-.336-.544-.799-.544-1.43 0-1.345 1.046-2.017 3.18-2.102l1.129-.042v-.42c0-.504-.125-.883-.334-1.135-.209-.252-.586-.378-1.046-.378-.544 0-1.172.168-1.841.504l-.293-.757a7.763 7.763 0 0 1 1.046-.42 3.594 3.594 0 0 1 1.171-.168c.795 0 1.381.168 1.758.504.376.337.585.925.585 1.682v4.498h-.836v.042zm-2.218-.714c.628 0 1.088-.169 1.465-.505.334-.336.543-.799.543-1.43v-.588l-1.004.042c-.795.042-1.338.168-1.715.379-.377.21-.544.546-.544 1.009 0 .378.126.63.335.84.209.21.502.253.92.253zm6.276-3.153c1.255 0 1.841-.337 1.841-1.052 0-.63-.502-.966-1.507-.966a5.12 5.12 0 0 0-.836.084c-.251.042-.586.168-1.004.336l-.335-.799a5.504 5.504 0 0 1 2.217-.462c.753 0 1.339.168 1.799.462.419.295.67.715.67 1.261 0 .757-.419 1.22-1.214 1.43v.042c.502.168.879.378 1.088.63.251.295.335.631.335 1.052 0 .588-.251 1.092-.753 1.429-.502.336-1.172.504-2.008.504-.963 0-1.674-.126-2.176-.42v-.925a5.17 5.17 0 0 0 2.217.505c.586 0 1.005-.085 1.297-.295.293-.21.461-.504.461-.84 0-.757-.628-1.136-1.841-1.136h-.921v-.84h.67zm8.66 3.867l-.209-.925h-.042a3.34 3.34 0 0 1-.962.841 3.32 3.32 0 0 1-1.214.21c-.669 0-1.171-.168-1.548-.504-.376-.336-.543-.799-.543-1.43 0-1.345 1.045-2.017 3.179-2.102l1.13-.042v-.42c0-.504-.126-.883-.335-1.135-.209-.252-.586-.378-1.046-.378-.544 0-1.171.168-1.841.504l-.293-.757c.335-.168.67-.294 1.046-.42a3.597 3.597 0 0 1 1.172-.168c.795 0 1.38.168 1.757.504.377.337.586.925.586 1.682v4.498h-.837v.042zm-2.217-.714c.627 0 1.087-.169 1.464-.505.335-.336.544-.799.544-1.43v-.588l-1.004.042c-.795.042-1.339.168-1.716.379-.376.21-.544.546-.544 1.009 0 .378.126.63.335.84.209.21.544.253.921.253zM91.288 63.397c0 1.093-.25 1.934-.753 2.522-.502.589-1.213.883-2.092.883-.837 0-1.506-.252-2.008-.799-.502-.546-.795-1.303-.837-2.27h-1.715v2.985h-1.046v-6.6h1.004v2.774h1.716c.083-.925.376-1.64.878-2.144.502-.504 1.171-.756 2.008-.756.879 0 1.59.294 2.092.925.502.588.753 1.429.753 2.48zm-4.686 0c0 .84.126 1.471.419 1.934.293.462.753.672 1.38.672.628 0 1.088-.21 1.381-.63.293-.42.46-1.093.46-1.934 0-.84-.125-1.471-.418-1.892-.293-.42-.753-.63-1.38-.63-.628 0-1.088.21-1.381.63-.335.336-.46 1.009-.46 1.85zm9.498 3.405c-.419 0-.837-.084-1.172-.252-.335-.168-.67-.42-.879-.715h-.083c.041.379.083.757.083 1.093v2.69h-1.004v-9.542h.795l.126.883h.041a2.26 2.26 0 0 1 .88-.8c.334-.167.71-.252 1.17-.252.88 0 1.549.295 2.009.883.46.589.71 1.43.71 2.523 0 1.093-.25 1.934-.71 2.522-.46.673-1.13.967-1.967.967zm-.168-5.97c-.67 0-1.171.169-1.464.547-.293.378-.46.967-.46 1.766v.21c0 .925.167 1.597.46 1.976.293.378.795.588 1.464.588.586 0 1.004-.21 1.339-.672.335-.463.502-1.094.502-1.892 0-.841-.167-1.472-.502-1.892-.293-.42-.753-.63-1.339-.63zm4.477 5.213c0-.252.041-.462.167-.63a.72.72 0 0 1 .544-.21c.251 0 .418.084.544.21.125.126.209.336.209.63 0 .253-.084.463-.209.589a.722.722 0 0 1-.544.21.69.69 0 0 1-.502-.21c-.168-.084-.209-.294-.209-.589zm10.584.631l-.209-.925h-.042a3.31 3.31 0 0 1-.962.84 3.291 3.291 0 0 1-1.213.211c-.67 0-1.172-.168-1.548-.504-.377-.337-.544-.8-.544-1.43 0-1.345 1.046-2.018 3.18-2.102l1.129-.042v-.42c0-.505-.125-.883-.335-1.135-.209-.253-.585-.379-1.045-.379-.544 0-1.172.168-1.841.505l-.293-.757a7.762 7.762 0 0 1 1.046-.42 3.59 3.59 0 0 1 1.171-.169c.795 0 1.381.169 1.757.505.377.336.586.925.586 1.682v4.498h-.837v.042zm-2.217-.715c.628 0 1.088-.168 1.464-.504.335-.337.544-.799.544-1.43v-.588l-1.004.042c-.795.042-1.339.168-1.715.378-.377.21-.544.547-.544 1.01 0 .377.125.63.335.84.209.21.502.252.92.252zm10.71 2.985h-.962v-2.27h-4.602v2.27h-.962v-3.153h.502c.544-.715.962-1.597 1.255-2.564.293-.967.46-2.018.46-3.153h3.305v5.717h.921v3.153h.083zm-1.882-3.11v-4.962h-1.465a10.164 10.164 0 0 1-.502 2.691 7.865 7.865 0 0 1-1.088 2.228h3.055v.042zm6.233.966c-.418 0-.836-.084-1.171-.252-.335-.168-.67-.42-.879-.715h-.083c.041.379.083.757.083 1.093v2.69h-1.004v-9.542h.795l.126.883h.041c.251-.379.544-.631.879-.8.335-.167.711-.252 1.171-.252.879 0 1.548.295 2.009.883.46.589.711 1.43.711 2.523 0 1.093-.251 1.934-.711 2.522-.419.673-1.088.967-1.967.967zm-.125-5.97c-.67 0-1.172.169-1.464.547-.293.378-.461.967-.461 1.766v.21c0 .925.168 1.597.461 1.976.292.378.794.588 1.464.588.586 0 1.004-.21 1.339-.672.334-.463.502-1.094.502-1.892 0-.841-.168-1.472-.502-1.892-.293-.42-.753-.63-1.339-.63zm7.363 5.97c-.962 0-1.715-.294-2.301-.883-.586-.588-.837-1.43-.837-2.48 0-1.051.251-1.892.795-2.523.544-.63 1.213-.924 2.092-.924.837 0 1.464.252 1.966.798.461.547.712 1.262.712 2.144v.631h-4.519c0 .757.209 1.345.586 1.766.376.42.878.588 1.548.588a5.22 5.22 0 0 0 2.092-.462v.883c-.335.168-.67.252-1.004.336-.293.084-.67.126-1.13.126zm-.251-6.012c-.544 0-.962.169-1.255.505-.293.336-.502.84-.544 1.43h3.431c0-.631-.126-1.094-.419-1.43-.293-.337-.711-.505-1.213-.505zm6.987 6.012c-.962 0-1.674-.294-2.218-.883-.543-.588-.794-1.43-.794-2.48 0-1.093.251-1.934.794-2.565.544-.588 1.297-.882 2.26-.882.334 0 .627.042.962.084.335.042.544.168.753.252l-.293.84a3.512 3.512 0 0 0-.711-.21c-.251-.041-.502-.084-.67-.084-1.338 0-2.008.841-2.008 2.565 0 .799.168 1.43.502 1.85.335.42.795.63 1.465.63.543 0 1.087-.126 1.673-.336v.883a4.303 4.303 0 0 1-1.715.336zm8.869-3.405c0 1.093-.251 1.892-.795 2.522-.544.63-1.297.925-2.217.925-.586 0-1.088-.126-1.548-.42a2.85 2.85 0 0 1-1.046-1.177c-.251-.505-.376-1.135-.376-1.808 0-1.093.251-1.892.794-2.523.544-.588 1.297-.882 2.218-.882.92 0 1.631.294 2.175.925.502.546.795 1.387.795 2.438zm-5.02 0c0 .84.167 1.471.502 1.934.334.462.837.672 1.464.672.628 0 1.13-.21 1.464-.672.335-.463.502-1.093.502-1.934s-.167-1.472-.502-1.892c-.334-.42-.836-.673-1.506-.673-.669 0-1.129.21-1.464.63-.293.421-.46 1.052-.46 1.935zm12.091-1.64c0 .42-.126.757-.377.967-.251.21-.586.379-1.046.463v.042c.544.084.962.252 1.214.504.251.252.376.589.376 1.051 0 .63-.209 1.093-.669 1.43-.461.336-1.088.504-1.967.504h-2.886v-6.6h2.886c1.632-.042 2.469.504 2.469 1.64zm-1.004.084c0-.336-.126-.546-.377-.672s-.627-.21-1.13-.21h-1.882v1.85h1.673c.628 0 1.046-.085 1.297-.21.251-.127.419-.421.419-.758zm.209 2.86c0-.337-.126-.631-.419-.8-.251-.168-.711-.252-1.338-.252H149.4v2.186h1.84c1.13 0 1.716-.378 1.716-1.135zm10.919-2.944c0 .42-.125.757-.376.967-.251.21-.586.379-1.046.463v.042c.544.084.962.252 1.213.504.251.252.377.589.377 1.051 0 .63-.21 1.093-.67 1.43-.46.336-1.088.504-1.966.504h-2.845v-6.6h2.887c1.631-.042 2.426.504 2.426 1.64zm-.962.084c0-.336-.126-.546-.377-.672s-.627-.21-1.129-.21h-1.883v1.85h1.674c.627 0 1.046-.085 1.297-.21.251-.127.418-.421.418-.758zm.167 2.86c0-.337-.125-.631-.418-.8-.251-.168-.711-.252-1.339-.252h-1.799v2.186h1.841c1.171 0 1.715-.378 1.715-1.135zm9.665 1.975l-2.971-7.778h-.042c.042.631.084 1.346.084 2.187v5.591h-.92v-8.787h1.548l2.761 7.232h.042l2.803-7.231h1.506v8.786h-1.004v-5.675c0-.631.042-1.346.083-2.102h-.083l-2.971 7.777h-.836zm12.676-3.279c0 1.093-.251 1.892-.795 2.522-.544.63-1.297.925-2.217.925-.586 0-1.088-.126-1.548-.42a2.85 2.85 0 0 1-1.046-1.177c-.251-.505-.376-1.135-.376-1.808 0-1.093.251-1.892.794-2.523.544-.588 1.297-.882 2.218-.882.92 0 1.631.294 2.175.925.544.546.795 1.387.795 2.438zm-4.978 0c0 .84.167 1.471.502 1.934.334.462.836.672 1.464.672s1.13-.21 1.464-.672c.335-.463.502-1.093.502-1.934s-.167-1.472-.502-1.892c-.334-.42-.836-.673-1.506-.673-.669 0-1.129.21-1.464.63-.293.421-.46 1.052-.46 1.935zm9.371 3.405c-.962 0-1.673-.294-2.217-.883-.544-.588-.795-1.43-.795-2.48 0-1.093.251-1.934.795-2.565.544-.588 1.297-.882 2.259-.882.335 0 .628.042.962.084.335.042.544.168.753.252l-.293.84a3.512 3.512 0 0 0-.711-.21c-.251-.041-.502-.084-.669-.084-1.339 0-2.008.841-2.008 2.565 0 .799.167 1.43.502 1.85.334.42.795.63 1.464.63.544 0 1.088-.126 1.673-.336v.883a4.454 4.454 0 0 1-1.715.336zm7.029-6.726h1.087l-2.844 3.195 3.054 3.405h-1.172l-2.97-3.321v3.321h-1.004v-6.6h1.004v3.195l2.845-3.195zm7.823 1.681c0 .42-.125.757-.376.967-.251.21-.586.379-1.046.463v.042c.544.084.962.252 1.213.504.251.252.377.589.377 1.051 0 .63-.21 1.093-.67 1.43-.46.336-1.088.504-1.966.504h-2.887v-6.6h2.887c1.673-.042 2.468.504 2.468 1.64zm-.962.084c0-.336-.126-.546-.377-.672s-.627-.21-1.129-.21h-1.883v1.85h1.674c.627 0 1.046-.085 1.297-.21.251-.127.418-.421.418-.758zm.209 2.86c0-.337-.125-.631-.418-.8-.251-.168-.711-.252-1.339-.252h-1.799v2.186h1.841c1.129 0 1.715-.378 1.715-1.135zm5.188 2.101c-.962 0-1.715-.294-2.301-.883-.586-.588-.837-1.43-.837-2.48 0-1.051.251-1.892.795-2.523.544-.63 1.213-.924 2.092-.924.837 0 1.464.252 1.966.798.46.547.711 1.262.711 2.144v.631h-4.518c0 .757.209 1.345.586 1.766.376.42.878.588 1.548.588a5.22 5.22 0 0 0 2.092-.462v.883c-.335.168-.67.252-1.004.336-.293.084-.67.126-1.13.126zm-.251-6.012c-.544 0-.962.169-1.255.505-.293.336-.502.84-.544 1.43h3.431c0-.631-.126-1.094-.419-1.43-.293-.337-.711-.505-1.213-.505z" fill="#646464"/><defs><linearGradient id="paint0_linear" x1="37.303" y1="74.601" x2="37.303" y2=".849" gradientUnits="userSpaceOnUse"><stop stop-color="#A80532"/><stop offset="1" stop-color="#E2003E"/></linearGradient></defs></svg>