<svg width="196" height="68" fill="none" xmlns="http://www.w3.org/2000/svg"><path d="M75.898 27.481V16.084h3.852v11.054c0 1.258.61 2.364 2.632 2.364 2.021 0 2.631-1.068 2.631-2.364V16.084h3.853v11.397c0 3.583-2.785 5.756-6.484 5.756-3.7 0-6.484-2.173-6.484-5.756zm21.396-.114h-1.83v5.527h-3.852v-16.81h6.712a5.728 5.728 0 0 1 5.759 5.756c0 2.059-1.258 3.926-3.089 4.88l3.585 6.174h-4.119l-3.166-5.527zm-1.83-3.354h2.898c1.068 0 1.907-.953 1.907-2.173 0-1.22-.877-2.172-1.907-2.172h-2.898v4.345zm20.786 6.251h-6.255l-.839 2.63h-4.195l5.721-16.81h4.881l5.721 16.81h-4.195l-.839-2.63zm-1.144-3.583l-1.984-6.175-1.983 6.175h3.967zm22.54-2.173c0 4.765-3.547 8.386-8.162 8.386h-6.712v-16.81h6.712c4.615 0 8.162 3.66 8.162 8.424zm-3.699 0c0-2.896-1.831-4.688-4.463-4.688h-2.898v9.415h2.898c2.632-.038 4.463-1.868 4.463-4.727zm11.518 2.859h-1.831v5.527h-3.852v-16.81h6.713a5.728 5.728 0 0 1 5.759 5.756c0 2.059-1.259 3.926-3.09 4.88l3.586 6.174h-4.12l-3.165-5.527zm-1.831-3.354h2.899c1.068 0 1.907-.953 1.907-2.173 0-1.22-.877-2.172-1.907-2.172h-2.899v4.345zm21.511 5.184v3.697H154.58v-16.81h10.451v3.698h-6.599v2.782h5.988v3.66h-5.988v2.973h6.713zm1.335-.114l3.318-1.906c.61 1.41 1.64 2.325 3.547 2.325 1.831 0 2.288-.724 2.288-1.372 0-1.03-.953-1.449-3.47-2.135-2.518-.686-4.958-1.906-4.958-5.107 0-3.24 2.746-5.108 5.644-5.108 2.746 0 4.92 1.334 6.141 3.812l-3.242 1.905c-.572-1.181-1.373-1.943-2.899-1.943-1.182 0-1.792.61-1.792 1.257 0 .763.419 1.296 3.013 2.097 2.555.762 5.416 1.639 5.416 5.222 0 3.24-2.594 5.146-6.255 5.146-3.586-.039-5.836-1.716-6.751-4.193zm24.486 1.181h-6.255l-.839 2.63h-4.196l5.721-16.81h4.882L196 32.895h-4.195l-.839-2.63zm-1.145-3.583l-1.983-6.175-1.983 6.175h3.966zM68.003 0H0v67.962h68.003V0z" fill="#fff"/><path d="M36.423 17.877h7.552v-1.144h-7.552v1.144zm.267 16.466h7.552V33.2H36.69v1.143zm-1.296 18.64h7.551v-1.144h-7.551v1.143zm1.03-37.279h7.551V14.56h-7.552v1.144zm0-2.173h7.551v-1.143h-7.552v1.143zm.266 25.043h7.552v-1.143H36.69v1.143zm24.181 10.482a.765.765 0 0 0-.763-.762.863.863 0 0 0-.877.876v1.944h1.64v-2.058zm-24.18-6.251h7.551V41.66H36.69v1.144zm0-2.135h7.551v-1.143H36.69v1.143zm6.445-14.75h-7.552v1.143h7.552v-1.144zm-7.742 22.87h7.551v-1.144h-7.551v1.143zm0-2.135h7.551V45.51h-7.551v1.144zm7.742-16.505h-7.552v1.144h7.552V30.15zm-7.742 20.736h7.551v-1.144h-7.551v1.144zm7.742-27.063h-7.552v1.143h7.552v-1.143zm-6.713-3.774h7.552v-1.143h-7.552v1.143zm6.713 1.64h-7.552v1.143h7.552v-1.144zm17.277 35.22a.846.846 0 0 0-.839.838v1.524h1.564v-1.639a.701.701 0 0 0-.725-.724zM43.136 28.015h-7.552v1.143h7.552v-1.143zm-6.446 8.462h7.552v-1.144H36.69v1.144zm13.311 11.816a.863.863 0 0 0-.877.876v1.944h1.64v-2.058a.765.765 0 0 0-.763-.762zm10.412 5.45a.846.846 0 0 0-.839.839v1.525h1.564v-1.64a.701.701 0 0 0-.725-.724zm-1.983 3.85a.75.75 0 0 0-.725-.724.846.846 0 0 0-.839.839v1.524h1.564v-1.639zm-2.632-25.08a.75.75 0 0 0-.724-.725.846.846 0 0 0-.84.839v2.592h1.564v-2.706zm-3.585 9.071a2.856 2.856 0 0 0 2.86 2.859 2.856 2.856 0 0 0 2.861-2.859c0-1.6-1.296-2.858-2.86-2.858a2.856 2.856 0 0 0-2.86 2.858zm13.616 23.29h1.488v-2.288h-1.488v2.287zm0 2.858h1.488v-2.287h-1.488v2.287zM49.544 53.744a.846.846 0 0 0-.84.839v1.525h1.564v-1.64a.724.724 0 0 0-.724-.724zm14.264 14.218h.648v-6.29h3.547v-.571h-4.195v6.86zM49.544 56.908a.846.846 0 0 0-.84.839v1.524h1.564v-1.639a.724.724 0 0 0-.724-.724zm1.868 2.363h1.564v-1.639a.75.75 0 0 0-.725-.724.846.846 0 0 0-.839.839v1.524zm0-4.688v1.525h1.564v-1.64a.75.75 0 0 0-.725-.724.822.822 0 0 0-.839.839zm6.103-5.527a.765.765 0 0 0-.763-.762.863.863 0 0 0-.877.876v1.944h1.64v-2.058zM55.226 60.3a3.906 3.906 0 0 0-3.89 3.888V68h7.514v-4.04a3.63 3.63 0 0 0-3.624-3.66zm.458-5.831a.75.75 0 0 0-.725-.725.846.846 0 0 0-.839.839v1.525h1.564v-1.64zm2.746 0a.75.75 0 0 0-.725-.725.846.846 0 0 0-.839.839v1.525h1.564v-1.64zm-4.31-5.413a.765.765 0 0 0-.762-.762.863.863 0 0 0-.878.876v1.944h1.64v-2.058zm1.564 8.538a.75.75 0 0 0-.725-.724.846.846 0 0 0-.839.839v1.524h1.564v-1.639zm-37.682 4.841h6.56v-.991h-6.56v.991zM7.437 29.465h3.013v-4.346H7.437v4.345zm4.005 14.979h3.013V37.62h-3.013v6.823zm-4.005 0h3.013V37.62H7.437v6.823zm0-7.433h3.013v-6.823H7.437v6.823zm4.005 14.866h3.013v-6.823h-3.013v6.823zm13.12-8.157h-6.56v.99h6.56v-.99zm0 1.83h-6.56v.99h6.56v-.99zm-13.12-16.086h3.013V25.12h-3.013v4.345zm6.56 31.141h6.56v-.99h-6.56v.99zM0 0v58.509h4.157v-1.258h-.496v-.533h.496a1.064 1.064 0 0 1-.305-.763 1.107 1.107 0 1 1 1.907.763h.61v.533h-.495v1.258h7.933v4.917h-.916v-.915H11.1v.915h-.725v-.915H8.581v2.135h1.45v.762H8.58v2.135h1.45V68h.839v-3.964h30.55v3.926h.762v-4.536h-3.356v-7.013h.572v-2.669h1.373v2.669h.725v-2.669h1.373v2.669h.725v-2.669h1.373v2.669h.724v-2.669h1.373v2.669h.878v-3.621h-.649V51.8h.496v-4.307h-.267v-.99h.114l.84-4.422 1.068 4.421h1.067v-6.708h.42v-2.859h-.305v-.953h.61V29.96h1.373l2.212-11.207-1.068.8.496-1.486-1.258-.915h1.563l.496-1.486.496 1.486h1.564l-1.259.915.496 1.487-.992-.724 1.907 11.13h1.182v6.022h.763v.953h-.19v2.859h.305v6.708h1.03l.839-4.421 1.067 4.421h.077v.991h-.344V51.8h.687v.992h-.648v3.62h1.106v-2.668h1.373v2.669h.724v-2.669h1.373v2.669h.725v-2.669h.763V0H0zm15.942 63.426h-1.449v-5.565h-.038v-5.336h-3.013v5.336h-.992v-5.336H7.437v5.336h-.381V56.07H6.75v-.077c0-.648-.344-1.22-.877-1.524v-29.96h1.525v-2.287h7.17v2.287h1.411v38.917h-.038zm10.756-25.995h-1.144v10.215h1.144v11.168h-1.144v4.612h-.992v-.153h-6.56v.153h-.877v-4.879h1.144V47.99h-1.144V37.278h1.144v-9.834h-1.144V18.83h1.144v-1.258h6.484v1.258h.8v8.5h1.145v10.1zm6.14-9.34h-.267v2.097h-.839v3.583h-.457v8.081h1.144v2.135h-.877v5.565h.495v13.874h-3.432V49.552h.457v-5.604h-.877v-2.134h1.297v-3.697h.076V33.77h-.61v-3.583h-.877v-2.096h-.267v-3.583h1.411v-2.554h.61v-3.697h-.648v-.877h.724V11.7h-.648v-.914h.916v-4.27h.457v4.27h.877v.915h-.724v5.68h.724v.876h-.724v3.697h.496v2.554h1.601v3.583h-.038zm12.434-7.318h-1.335v11.321h1.335v12.35h-1.335v8.614H38.75v.877h-3.356v1.143h3.356v.61h-.572v2.097h-1.526v1.143h1.526v.953h-1.526v1.144h1.526v.953h-1.526v1.143h1.526v.229h-2.632v-6.518h-1.335V43.986h1.335V32.323h-1.335V20.659h1.335v-9.796h.916v-1.41h7.437v1.41h1.335v9.91h.038zm-29.673 47.19h5.149v-.648h-5.149v.648zm17.087 0h4.69v-.648h-4.69v.648zm0-1.067h4.69v-1.677h-4.69v1.677zm-17.087 0h5.149v-1.677h-5.149v1.677zm8.963-25.005h-6.56v.991h6.56v-.99zM7.437 51.877h3.013v-6.823H7.437v6.823zm16.705 16.085h4.692v-.648h-4.692v.648zm0-1.067h4.692v-1.677h-4.692v1.677zm-12.7-29.884h3.013v-6.823h-3.013v6.823zm14.073-6.937h-6.56v.991h6.56v-.991zm0 1.83h-6.56v.99h6.56v-.99zm0 1.83h-6.56v.99h6.56v-.99zm-6.407 16.199h6.56v-.991h-6.56v.99zm0 1.83h6.56v-.992h-6.56v.991zm0 3.659h6.56v-.991h-6.56v.99zm5.454-15.361h-6.56v.99h6.56v-.99zm-5.454 17.19h6.56v-.99h-6.56v.99zm0-3.66h6.56v-.99h-6.56v.99zm-.153-17.037h6.56v-.991h-6.56v.99zm5.836-10.75h-6.56v.992h6.56v-.991zm0-1.905h-6.56v.991h6.56v-.99zm-.229 14.332h-6.56v.991h6.56v-.991zm.953-9.987h-6.56v.991h6.56v-.99zm-.724-6.213h-6.56v.991h6.56v-.99zm0-1.905h-6.56v.99h6.56v-.99z" fill="url(#paint0_linear)"/><path d="M77.92 48.56c-.878 0-1.526-.267-2.022-.8-.496-.534-.725-1.296-.725-2.25 0-.99.23-1.753.725-2.324.496-.534 1.182-.8 2.06-.8.305 0 .572.037.877.075.305.038.496.153.686.23l-.267.761a3.225 3.225 0 0 0-.648-.19c-.229-.038-.458-.076-.61-.076-1.22 0-1.831.762-1.831 2.325 0 .724.153 1.296.458 1.677.305.381.724.572 1.335.572.495 0 .991-.115 1.525-.305v.8c-.458.19-.953.305-1.564.305zm6.598-.114l-.191-.838h-.038c-.305.38-.61.61-.877.762-.306.114-.649.19-1.107.19-.61 0-1.067-.152-1.41-.457-.344-.305-.496-.724-.496-1.296 0-1.22.953-1.83 2.898-1.906l1.03-.038v-.38c0-.458-.114-.801-.305-1.03-.19-.229-.534-.343-.954-.343-.495 0-1.068.152-1.678.457l-.267-.686a7.1 7.1 0 0 1 .954-.381 3.294 3.294 0 0 1 1.068-.153c.724 0 1.258.153 1.602.458.343.305.533.839.533 1.525v4.078h-.762v.038zm-2.06-.648c.572 0 .992-.152 1.335-.457.305-.305.496-.724.496-1.296v-.534l-.915.038c-.725.038-1.221.153-1.564.343-.344.191-.496.496-.496.915 0 .343.114.572.305.762.19.191.496.23.84.23zm7.704-.229l.153-.495.229-.648 1.602-3.927h1.144v5.947h-.801v-4.917l-.115.305-.305.838-1.525 3.774h-.763l-1.526-3.812c-.19-.495-.343-.877-.381-1.144v4.918h-.801V42.46h1.106l1.564 3.774c.152.42.267.877.42 1.334zm8.772.877l-.19-.838h-.038c-.306.38-.61.61-.878.762a3.04 3.04 0 0 1-1.106.19c-.61 0-1.068-.152-1.41-.457-.344-.305-.497-.724-.497-1.296 0-1.22.954-1.83 2.899-1.906l1.03-.038v-.38c0-.458-.115-.801-.305-1.03-.191-.229-.534-.343-.954-.343-.496 0-1.068.152-1.678.457l-.267-.686c.305-.152.61-.267.953-.381a3.294 3.294 0 0 1 1.068-.153c.725 0 1.259.153 1.602.458.344.305.534.839.534 1.525v4.078h-.763v.038zm-2.06-.648c.573 0 .993-.152 1.336-.457.305-.305.496-.724.496-1.296v-.534l-.916.038c-.724.038-1.22.153-1.564.343-.343.191-.495.496-.495.915 0 .343.114.572.305.762.19.191.496.23.839.23zm4.883.648h-1.068l1.716-2.516c-.457-.114-.801-.305-1.068-.61a1.759 1.759 0 0 1-.381-1.105c0-.534.191-.991.534-1.296.381-.305.877-.458 1.525-.458h2.67v5.985h-.915v-2.402h-1.526l-1.487 2.402zm.114-4.231c0 .686.496 1.029 1.488 1.029h1.449v-2.02h-1.64c-.839.038-1.297.343-1.297.99zm9.611 4.231h-.915V42.46h5.035v5.985h-.916v-5.184h-3.204v5.184zm11.175-3.011c0 .99-.228 1.715-.724 2.287-.496.572-1.183.838-2.022.838-.534 0-.991-.114-1.411-.38a2.583 2.583 0 0 1-.953-1.068c-.229-.457-.344-1.03-.344-1.64 0-.99.229-1.714.725-2.286.496-.534 1.182-.8 2.021-.8.84 0 1.488.266 1.984.838.496.534.724 1.258.724 2.21zm-4.538 0c0 .762.152 1.334.457 1.753.306.42.763.61 1.335.61s1.03-.19 1.335-.61c.305-.42.458-.99.458-1.753 0-.763-.153-1.334-.458-1.715-.305-.382-.763-.61-1.373-.61s-1.03.19-1.335.572c-.267.419-.419.99-.419 1.753zm10.603 3.011h-.916v-5.184h-1.792c-.115 1.296-.229 2.325-.42 3.087-.191.763-.419 1.334-.686 1.677a1.338 1.338 0 0 1-1.068.534c-.191 0-.344-.038-.458-.076v-.686c.076.038.153.038.267.038.42 0 .763-.458.992-1.334.228-.877.419-2.211.572-4.04h3.509v5.984zm2.822-5.985v2.516h3.356v-2.516h.916v5.985h-.916v-2.707h-3.356v2.707h-.915V42.46h.915zm9.84 5.985l-.191-.838h-.038c-.305.38-.61.61-.877.762a3.04 3.04 0 0 1-1.106.19c-.61 0-1.068-.152-1.411-.457-.344-.305-.496-.724-.496-1.296 0-1.22.953-1.83 2.899-1.906l1.029-.038v-.38c0-.458-.114-.801-.305-1.03-.191-.229-.534-.343-.953-.343-.496 0-1.068.152-1.678.457l-.267-.686c.305-.152.61-.267.953-.381a3.295 3.295 0 0 1 1.068-.153c.725 0 1.259.153 1.602.458.343.305.534.839.534 1.525v4.078h-.763v.038zm-2.06-.648c.573 0 .992-.152 1.335-.457.305-.305.496-.724.496-1.296v-.534l-.915.038c-.725.038-1.221.153-1.564.343-.343.191-.496.496-.496.915 0 .343.115.572.305.762.191.191.496.23.839.23zm4.882.648h-1.068l1.717-2.516c-.458-.114-.801-.305-1.068-.61a1.76 1.76 0 0 1-.382-1.105c0-.534.191-.991.534-1.296.382-.305.878-.458 1.526-.458h2.67v5.985h-.916v-2.402h-1.525l-1.488 2.402zm.115-4.231c0 .686.496 1.029 1.487 1.029h1.449v-2.02h-1.64c-.839.038-1.296.343-1.296.99zm8.39.648c0-1.296.191-2.325.573-3.05.381-.724.991-1.18 1.83-1.372 1.03-.228 1.945-.419 2.746-.533l.153.8c-1.259.229-2.174.382-2.708.496-.534.114-.915.42-1.182.838-.267.458-.42 1.068-.42 1.83h.076c.229-.305.534-.534.878-.724.343-.19.724-.267 1.106-.267.724 0 1.296.229 1.716.724.419.458.61 1.144.61 1.982 0 .953-.229 1.677-.724 2.173-.458.534-1.145.8-1.984.8s-1.487-.305-1.983-.953c-.458-.686-.687-1.562-.687-2.744zm2.785 2.935c1.106 0 1.678-.724 1.678-2.135 0-1.334-.496-2.02-1.526-2.02-.267 0-.534.077-.801.19a2.155 2.155 0 0 0-.686.458c-.229.19-.382.382-.496.572 0 .953.153 1.677.458 2.173.267.495.724.762 1.373.762zm7.856.648l-.19-.838h-.038c-.305.38-.611.61-.878.762a3.04 3.04 0 0 1-1.106.19c-.61 0-1.068-.152-1.411-.457-.343-.305-.496-.724-.496-1.296 0-1.22.954-1.83 2.899-1.906l1.03-.038v-.38c0-.458-.115-.801-.305-1.03-.191-.229-.534-.343-.954-.343-.496 0-1.068.152-1.678.457l-.267-.686c.305-.152.61-.267.954-.381a3.289 3.289 0 0 1 1.067-.153c.725 0 1.259.153 1.602.458.344.305.534.839.534 1.525v4.078h-.763v.038zm-2.021-.648c.572 0 .992-.152 1.335-.457.305-.305.496-.724.496-1.296v-.534l-.916.038c-.724.038-1.22.153-1.563.343-.344.191-.496.496-.496.915a1 1 0 0 0 .305.762c.191.191.458.23.839.23zm5.721-2.858c1.144 0 1.678-.305 1.678-.953 0-.572-.458-.877-1.373-.877-.267 0-.534.038-.763.076-.229.038-.534.153-.915.305l-.305-.724a5.045 5.045 0 0 1 2.021-.42c.687 0 1.221.153 1.64.42.382.267.61.648.61 1.143 0 .686-.381 1.106-1.106 1.296v.038c.458.153.801.343.992.572.229.267.305.572.305.953 0 .534-.229.991-.686 1.296-.458.305-1.068.457-1.831.457-.877 0-1.526-.114-1.983-.38v-.84a4.738 4.738 0 0 0 2.021.458c.534 0 .915-.076 1.182-.267.267-.19.42-.457.42-.762 0-.686-.572-1.03-1.678-1.03h-.839v-.761h.61zm7.895 3.506l-.191-.838h-.038c-.305.38-.61.61-.877.762-.305.114-.649.19-1.106.19-.61 0-1.068-.152-1.411-.457-.344-.305-.496-.724-.496-1.296 0-1.22.953-1.83 2.898-1.906l1.03-.038v-.38c0-.458-.114-.801-.305-1.03-.191-.229-.534-.343-.953-.343-.496 0-1.068.152-1.679.457l-.267-.686c.306-.152.611-.267.954-.381a3.29 3.29 0 0 1 1.068-.153c.725 0 1.258.153 1.602.458.343.305.534.839.534 1.525v4.078h-.763v.038zm-2.021-.648c.572 0 .991-.152 1.334-.457.306-.305.496-.724.496-1.296v-.534l-.915.038c-.725.038-1.221.153-1.564.343-.343.191-.496.496-.496.915 0 .343.115.572.305.762.191.191.496.23.84.23zM83.22 57.48c0 .99-.228 1.753-.686 2.286-.457.534-1.106.8-1.907.8-.762 0-1.373-.228-1.83-.724-.458-.495-.725-1.181-.763-2.058H76.47v2.706h-.953v-5.984h.915v2.516h1.564c.076-.839.343-1.487.8-1.944.458-.458 1.069-.686 1.831-.686.801 0 1.45.267 1.907.838.458.534.687 1.296.687 2.25zm-4.27 0c0 .762.114 1.333.38 1.753.268.419.687.61 1.26.61.571 0 .99-.191 1.258-.572.267-.381.42-.991.42-1.754 0-.762-.115-1.334-.382-1.715s-.686-.572-1.259-.572c-.572 0-.991.191-1.258.572-.305.305-.42.915-.42 1.677zm8.657 3.087c-.381 0-.763-.076-1.068-.229-.305-.152-.61-.38-.8-.648h-.077c.038.343.076.687.076.991v2.44h-.915v-8.653h.724l.115.8h.038a2.05 2.05 0 0 1 .8-.723c.306-.153.65-.23 1.069-.23.8 0 1.411.268 1.83.801.42.534.649 1.296.649 2.287 0 .991-.229 1.754-.648 2.287-.42.61-1.03.877-1.793.877zm-.153-5.413c-.61 0-1.067.153-1.334.496-.267.343-.42.877-.42 1.6v.191c0 .839.153 1.449.42 1.792.266.343.724.534 1.334.534.534 0 .916-.191 1.22-.61.306-.42.458-.991.458-1.715 0-.763-.152-1.335-.457-1.716-.267-.38-.687-.572-1.22-.572zm4.081 4.726c0-.228.038-.419.153-.571a.659.659 0 0 1 .496-.19c.229 0 .381.075.496.19.114.114.19.305.19.572 0 .228-.076.419-.19.533a.66.66 0 0 1-.496.19.632.632 0 0 1-.458-.19c-.153-.076-.19-.267-.19-.533zm9.65.573l-.191-.839h-.038c-.305.382-.61.61-.877.763-.305.114-.649.19-1.106.19-.61 0-1.068-.152-1.412-.457-.343-.305-.495-.724-.495-1.296 0-1.22.953-1.83 2.898-1.906l1.03-.038v-.381c0-.457-.114-.8-.305-1.03-.191-.228-.534-.342-.954-.342-.495 0-1.067.152-1.678.457l-.267-.686c.305-.152.61-.267.954-.381a3.29 3.29 0 0 1 1.068-.153c.724 0 1.258.153 1.602.458.343.305.533.838.533 1.525v4.078h-.762v.038zm-2.022-.648c.572 0 .992-.152 1.335-.457.305-.305.496-.724.496-1.296v-.534l-.915.038c-.725.038-1.22.153-1.564.343-.343.19-.496.496-.496.915 0 .343.114.572.305.762.19.191.458.23.84.23zm9.764 2.705h-.877v-2.057h-4.196v2.058h-.877v-2.859h.458c.496-.648.877-1.448 1.144-2.325a9.77 9.77 0 0 0 .42-2.859h3.013v5.184h.839v2.859h.076zm-1.716-2.82v-4.497h-1.335a9.165 9.165 0 0 1-.458 2.439 7.136 7.136 0 0 1-.991 2.02h2.784v.038zm5.683.877c-.382 0-.763-.076-1.068-.229-.305-.152-.611-.38-.801-.648h-.077c.039.343.077.687.077.991v2.44h-.916v-8.653h.725l.114.8h.039a2.04 2.04 0 0 1 .801-.723c.305-.153.648-.23 1.067-.23.801 0 1.412.268 1.831.801.42.534.649 1.296.649 2.287 0 .991-.229 1.754-.649 2.287-.381.61-.991.877-1.792.877zm-.115-5.413c-.61 0-1.068.153-1.335.496-.267.343-.419.877-.419 1.6v.191c0 .839.152 1.449.419 1.792.267.343.725.534 1.335.534.534 0 .916-.191 1.221-.61.305-.42.457-.991.457-1.715 0-.763-.152-1.335-.457-1.716-.267-.38-.687-.572-1.221-.572zm6.713 5.413c-.878 0-1.564-.267-2.098-.8-.534-.534-.763-1.297-.763-2.25 0-.953.229-1.715.725-2.287.496-.571 1.106-.838 1.907-.838.763 0 1.335.228 1.792.724.42.496.649 1.144.649 1.944v.572h-4.119c0 .686.19 1.22.534 1.6.343.382.801.534 1.411.534.648 0 1.297-.152 1.907-.419v.8c-.305.153-.61.23-.916.305-.267.077-.61.115-1.029.115zm-.229-5.45c-.496 0-.877.152-1.144.457-.267.304-.458.762-.496 1.295h3.127c0-.571-.114-.99-.381-1.295-.267-.305-.648-.458-1.106-.458zm6.369 5.45c-.877 0-1.525-.267-2.021-.8-.496-.534-.725-1.297-.725-2.25 0-.99.229-1.753.725-2.325.496-.533 1.182-.8 2.059-.8.306 0 .573.038.878.076.305.038.495.152.686.229l-.267.762a3.223 3.223 0 0 0-.648-.19 4.3 4.3 0 0 0-.61-.077c-1.221 0-1.831.763-1.831 2.325 0 .725.152 1.296.458 1.677.305.382.724.572 1.334.572.496 0 .992-.114 1.526-.305v.8a3.934 3.934 0 0 1-1.564.306zm8.086-3.087c0 .99-.229 1.715-.725 2.287-.496.571-1.182.838-2.021.838-.534 0-.992-.114-1.411-.381a2.585 2.585 0 0 1-.954-1.067c-.229-.458-.343-1.03-.343-1.64 0-.99.229-1.715.725-2.286.495-.534 1.182-.8 2.021-.8s1.487.266 1.983.838c.458.495.725 1.258.725 2.21zm-4.577 0c0 .762.153 1.334.458 1.753.305.42.763.61 1.335.61s1.029-.19 1.335-.61c.305-.42.457-.991.457-1.753 0-.763-.152-1.334-.457-1.716-.306-.38-.763-.61-1.373-.61-.611 0-1.03.191-1.335.572-.267.381-.42.953-.42 1.754zm11.022-1.487c0 .381-.114.686-.343.877-.229.19-.534.343-.953.42v.037c.496.077.877.229 1.106.458.229.228.343.533.343.953 0 .571-.191.99-.61 1.296-.42.305-.992.457-1.793.457h-2.631v-5.984h2.631c1.488-.038 2.25.457 2.25 1.486zm-.915.076c0-.305-.114-.495-.343-.61-.229-.114-.572-.19-1.03-.19h-1.716v1.677h1.525c.573 0 .954-.076 1.183-.19.229-.115.381-.382.381-.687zm.191 2.592c0-.305-.115-.571-.382-.724-.228-.152-.648-.228-1.22-.228h-1.64v1.981h1.678c1.03 0 1.564-.343 1.564-1.029zm9.954-2.668c0 .381-.114.686-.343.877-.229.19-.534.343-.954.42v.037c.496.077.878.229 1.107.458.228.228.343.533.343.953 0 .571-.191.99-.61 1.296-.42.305-.992.457-1.793.457h-2.594v-5.984h2.632c1.488-.038 2.212.457 2.212 1.486zm-.877.076c0-.305-.114-.495-.343-.61-.229-.114-.572-.19-1.03-.19h-1.716v1.677h1.525c.572 0 .954-.076 1.183-.19.228-.115.381-.382.381-.687zm.153 2.592c0-.305-.115-.571-.382-.724-.229-.152-.648-.228-1.22-.228h-1.64v1.981h1.678c1.068 0 1.564-.343 1.564-1.029zm8.81 1.792l-2.708-7.052h-.038c.038.572.076 1.22.076 1.982v5.07h-.839v-7.967h1.411l2.517 6.556h.039l2.555-6.556h1.373v7.967h-.915v-5.146c0-.572.038-1.22.076-1.906h-.076l-2.708 7.051h-.763zm11.556-2.973c0 .99-.229 1.715-.724 2.287-.496.571-1.183.838-2.022.838-.534 0-.991-.114-1.411-.381a2.583 2.583 0 0 1-.953-1.067c-.229-.458-.344-1.03-.344-1.64 0-.99.229-1.715.725-2.286.496-.534 1.182-.8 2.021-.8s1.488.266 1.984.838c.495.495.724 1.258.724 2.21zm-4.538 0c0 .762.152 1.334.457 1.753.305.42.763.61 1.335.61s1.03-.19 1.335-.61c.305-.42.458-.991.458-1.753 0-.763-.153-1.334-.458-1.716-.305-.38-.763-.61-1.373-.61s-1.03.191-1.335.572c-.267.381-.419.953-.419 1.754zm8.543 3.087c-.877 0-1.526-.267-2.021-.8-.496-.534-.725-1.297-.725-2.25 0-.99.229-1.753.725-2.325.495-.533 1.182-.8 2.059-.8.305 0 .572.038.877.076.305.038.496.152.687.229l-.267.762a3.233 3.233 0 0 0-.649-.19 4.383 4.383 0 0 0-.61-.077c-1.22 0-1.83.763-1.83 2.325 0 .725.152 1.296.457 1.677.305.382.725.572 1.335.572.496 0 .992-.114 1.526-.305v.8a4.078 4.078 0 0 1-1.564.306zm6.407-6.099h.992l-2.593 2.897 2.784 3.088h-1.068l-2.708-3.012v3.012h-.915v-5.985h.915v2.897l2.593-2.897zm7.133 1.525c0 .381-.115.686-.344.877-.229.19-.534.343-.953.42v.037c.496.077.877.229 1.106.458.229.228.343.533.343.953 0 .571-.191.99-.61 1.296-.42.305-.992.457-1.793.457h-2.631v-5.984h2.631c1.526-.038 2.251.457 2.251 1.486zm-.878.076c0-.305-.114-.495-.343-.61-.229-.114-.572-.19-1.03-.19h-1.716v1.677h1.526c.572 0 .953-.076 1.182-.19.229-.115.381-.382.381-.687zm.191 2.592c0-.305-.114-.571-.381-.724-.229-.152-.649-.228-1.221-.228h-1.64v1.981h1.678c1.03 0 1.564-.343 1.564-1.029zm4.729 1.906c-.877 0-1.563-.267-2.097-.8-.534-.534-.763-1.297-.763-2.25 0-.953.229-1.715.725-2.287.495-.571 1.106-.838 1.906-.838.763 0 1.335.228 1.793.724.42.496.648 1.144.648 1.944v.572h-4.119c0 .686.191 1.22.534 1.6.344.382.801.534 1.411.534.649 0 1.297-.152 1.907-.419v.8c-.305.153-.61.23-.915.305-.267.077-.61.115-1.03.115zm-.229-5.45c-.495 0-.877.152-1.144.457-.267.304-.457.762-.496 1.295h3.128c0-.571-.114-.99-.381-1.295-.267-.305-.649-.458-1.107-.458z" fill="#fff"/><defs><linearGradient id="paint0_linear" x1="34.007" y1="67.639" x2="34.007" y2=".77" gradientUnits="userSpaceOnUse"><stop stop-color="#A80532"/><stop offset="1" stop-color="#E2003E"/></linearGradient></defs></svg>